<?xml version="1.0" encoding="UTF-8" standalone="no"?>
<!DOCTYPE svg PUBLIC "-//W3C//DTD SVG 1.1//EN"
 "http://www.w3.org/Graphics/SVG/1.1/DTD/svg11.dtd">
<!-- Generated by graphviz version 2.38.0 (20140413.2041)
 -->
<!-- Title: G Pages: 1 -->
<svg width="2006pt" height="263pt"
 viewBox="0.00 0.00 2006.00 263.00" xmlns="http://www.w3.org/2000/svg" xmlns:xlink="http://www.w3.org/1999/xlink">
<g id="graph0" class="graph" transform="scale(1 1) rotate(0) translate(4 258.997)">
<title>G</title>
<polygon fill="white" stroke="none" points="-4,4 -4,-258.997 2002,-258.997 2002,4 -4,4"/>
<!-- 37 -->
<g id="node1" class="node"><title>37</title>
<ellipse fill="red" stroke="black" cx="1287" cy="-19.4983" rx="19.4965" ry="19.4965"/>
<text text-anchor="middle" x="1287" y="-15.7983" font-family="Times,serif" font-size="14.00">37</text>
</g>
<!-- 28 -->
<g id="node2" class="node"><title>28</title>
<ellipse fill="red" stroke="black" cx="855" cy="-19.4983" rx="19.4965" ry="19.4965"/>
<text text-anchor="middle" x="855" y="-15.7983" font-family="Times,serif" font-size="14.00">28</text>
</g>
<!-- 0 -->
<g id="node3" class="node"><title>0</title>
<ellipse fill="none" stroke="black" cx="252" cy="-236.997" rx="27" ry="18"/>
<text text-anchor="middle" x="252" y="-233.297" font-family="Times,serif" font-size="14.00">0</text>
</g>
<!-- 32 -->
<g id="node4" class="node"><title>32</title>
<ellipse fill="none" stroke="black" cx="1107" cy="-164.997" rx="27" ry="18"/>
<text text-anchor="middle" x="1107" y="-161.297" font-family="Times,serif" font-size="14.00">32</text>
</g>
<!-- 0&#45;&gt;32 -->
<g id="edge1" class="edge"><title>0&#45;&gt;32</title>
<path fill="none" stroke="black" d="M274.018,-226.099C281.203,-223.3 289.312,-220.586 297,-218.997 634.242,-149.285 736.814,-266.135 1071,-182.997 1073.18,-182.454 1075.39,-181.776 1077.58,-181.004"/>
<polygon fill="black" stroke="black" points="1079.03,-184.191 1086.96,-177.161 1076.38,-177.713 1079.03,-184.191"/>
</g>
<!-- 16 -->
<g id="node5" class="node"><title>16</title>
<ellipse fill="none" stroke="black" cx="27" cy="-164.997" rx="27" ry="18"/>
<text text-anchor="middle" x="27" y="-161.297" font-family="Times,serif" font-size="14.00">16</text>
</g>
<!-- 0&#45;&gt;16 -->
<g id="edge2" class="edge"><title>0&#45;&gt;16</title>
<path fill="none" stroke="black" d="M226.807,-230.358C190.17,-221.84 120.307,-204.39 63,-182.997 61.1545,-182.308 59.2738,-181.561 57.3885,-180.779"/>
<polygon fill="black" stroke="black" points="58.6283,-177.501 48.0664,-176.666 55.8028,-183.905 58.6283,-177.501"/>
</g>
<!-- 8 -->
<g id="node6" class="node"><title>8</title>
<ellipse fill="none" stroke="black" cx="603" cy="-164.997" rx="27" ry="18"/>
<text text-anchor="middle" x="603" y="-161.297" font-family="Times,serif" font-size="14.00">8</text>
</g>
<!-- 0&#45;&gt;8 -->
<g id="edge3" class="edge"><title>0&#45;&gt;8</title>
<path fill="none" stroke="black" d="M274.109,-226.494C281.298,-223.717 289.388,-220.915 297,-218.997 414.391,-189.412 450.885,-217.251 567,-182.997 568.939,-182.425 570.905,-181.761 572.866,-181.035"/>
<polygon fill="black" stroke="black" points="574.614,-184.098 582.489,-177.011 571.913,-177.64 574.614,-184.098"/>
</g>
<!-- 4 -->
<g id="node7" class="node"><title>4</title>
<ellipse fill="none" stroke="black" cx="387" cy="-164.997" rx="27" ry="18"/>
<text text-anchor="middle" x="387" y="-161.297" font-family="Times,serif" font-size="14.00">4</text>
</g>
<!-- 0&#45;&gt;4 -->
<g id="edge4" class="edge"><title>0&#45;&gt;4</title>
<path fill="none" stroke="black" d="M272.798,-225.212C295.458,-213.463 331.891,-194.571 357.5,-181.293"/>
<polygon fill="black" stroke="black" points="359.134,-184.388 366.4,-176.678 355.911,-178.174 359.134,-184.388"/>
</g>
<!-- 2 -->
<g id="node8" class="node"><title>2</title>
<ellipse fill="none" stroke="black" cx="99" cy="-164.997" rx="27" ry="18"/>
<text text-anchor="middle" x="99" y="-161.297" font-family="Times,serif" font-size="14.00">2</text>
</g>
<!-- 0&#45;&gt;2 -->
<g id="edge5" class="edge"><title>0&#45;&gt;2</title>
<path fill="none" stroke="black" d="M229.957,-226.137C206.402,-215.571 167.99,-198.257 135,-182.997 133.212,-182.17 131.376,-181.316 129.525,-180.452"/>
<polygon fill="black" stroke="black" points="130.834,-177.2 120.294,-176.12 127.86,-183.537 130.834,-177.2"/>
</g>
<!-- 1 -->
<g id="node9" class="node"><title>1</title>
<ellipse fill="none" stroke="black" cx="243" cy="-164.997" rx="27" ry="18"/>
<text text-anchor="middle" x="243" y="-161.297" font-family="Times,serif" font-size="14.00">1</text>
</g>
<!-- 0&#45;&gt;1 -->
<g id="edge6" class="edge"><title>0&#45;&gt;1</title>
<path fill="none" stroke="black" d="M249.821,-219.051C248.83,-211.342 247.632,-202.023 246.518,-193.361"/>
<polygon fill="black" stroke="black" points="249.968,-192.744 245.221,-183.272 243.025,-193.637 249.968,-192.744"/>
</g>
<!-- 33 -->
<g id="node10" class="node"><title>33</title>
<ellipse fill="none" stroke="black" cx="1179" cy="-92.9965" rx="27" ry="18"/>
<text text-anchor="middle" x="1179" y="-89.2965" font-family="Times,serif" font-size="14.00">33</text>
</g>
<!-- 32&#45;&gt;33 -->
<g id="edge99" class="edge"><title>32&#45;&gt;33</title>
<path fill="none" stroke="black" d="M1121.57,-149.831C1131.75,-139.934 1145.52,-126.543 1157.03,-115.356"/>
<polygon fill="black" stroke="black" points="1159.47,-117.862 1164.2,-108.381 1154.59,-112.843 1159.47,-117.862"/>
</g>
<!-- 34 -->
<g id="node13" class="node"><title>34</title>
<ellipse fill="none" stroke="black" cx="1035" cy="-92.9965" rx="27" ry="18"/>
<text text-anchor="middle" x="1035" y="-89.2965" font-family="Times,serif" font-size="14.00">34</text>
</g>
<!-- 32&#45;&gt;34 -->
<g id="edge98" class="edge"><title>32&#45;&gt;34</title>
<path fill="none" stroke="black" d="M1092.43,-149.831C1082.25,-139.934 1068.48,-126.543 1056.97,-115.356"/>
<polygon fill="black" stroke="black" points="1059.41,-112.843 1049.8,-108.381 1054.53,-117.862 1059.41,-112.843"/>
</g>
<!-- 36 -->
<g id="node17" class="node"><title>36</title>
<ellipse fill="none" stroke="black" cx="1251" cy="-92.9965" rx="27" ry="18"/>
<text text-anchor="middle" x="1251" y="-89.2965" font-family="Times,serif" font-size="14.00">36</text>
</g>
<!-- 32&#45;&gt;36 -->
<g id="edge97" class="edge"><title>32&#45;&gt;36</title>
<path fill="none" stroke="black" d="M1128.25,-153.668C1152.6,-141.829 1192.72,-122.328 1220.43,-108.858"/>
<polygon fill="black" stroke="black" points="1222.2,-111.887 1229.67,-104.368 1219.14,-105.592 1222.2,-111.887"/>
</g>
<!-- 18 -->
<g id="node14" class="node"><title>18</title>
<ellipse fill="none" stroke="black" cx="279" cy="-92.9965" rx="27" ry="18"/>
<text text-anchor="middle" x="279" y="-89.2965" font-family="Times,serif" font-size="14.00">18</text>
</g>
<!-- 16&#45;&gt;18 -->
<g id="edge59" class="edge"><title>16&#45;&gt;18</title>
<path fill="none" stroke="black" d="M47.6411,-153.384C52.5922,-151.081 57.919,-148.799 63,-146.997 124.858,-125.053 199.802,-108.883 243.181,-100.494"/>
<polygon fill="black" stroke="black" points="244.073,-103.887 253.243,-98.5787 242.764,-97.0105 244.073,-103.887"/>
</g>
<!-- 20 -->
<g id="node18" class="node"><title>20</title>
<ellipse fill="none" stroke="black" cx="436" cy="-92.9965" rx="27" ry="18"/>
<text text-anchor="middle" x="436" y="-89.2965" font-family="Times,serif" font-size="14.00">20</text>
</g>
<!-- 16&#45;&gt;20 -->
<g id="edge58" class="edge"><title>16&#45;&gt;20</title>
<path fill="none" stroke="black" d="M47.4855,-152.895C52.443,-150.612 57.8117,-148.462 63,-146.997 204.133,-107.138 248.387,-145.181 391,-110.997 395.413,-109.939 399.981,-108.564 404.438,-107.054"/>
<polygon fill="black" stroke="black" points="405.717,-110.314 413.917,-103.605 403.323,-103.736 405.717,-110.314"/>
</g>
<!-- 24 -->
<g id="node26" class="node"><title>24</title>
<ellipse fill="none" stroke="black" cx="603" cy="-92.9965" rx="27" ry="18"/>
<text text-anchor="middle" x="603" y="-89.2965" font-family="Times,serif" font-size="14.00">24</text>
</g>
<!-- 16&#45;&gt;24 -->
<g id="edge57" class="edge"><title>16&#45;&gt;24</title>
<path fill="none" stroke="black" d="M47.0665,-152.929C52.1303,-150.586 57.6516,-148.4 63,-146.997 278.074,-90.5646 345.631,-162.238 562,-110.997 565.402,-110.191 568.887,-109.137 572.317,-107.947"/>
<polygon fill="black" stroke="black" points="573.649,-111.185 581.729,-104.332 571.139,-104.651 573.649,-111.185"/>
</g>
<!-- 10 -->
<g id="node15" class="node"><title>10</title>
<ellipse fill="none" stroke="black" cx="675" cy="-92.9965" rx="27" ry="18"/>
<text text-anchor="middle" x="675" y="-89.2965" font-family="Times,serif" font-size="14.00">10</text>
</g>
<!-- 8&#45;&gt;10 -->
<g id="edge31" class="edge"><title>8&#45;&gt;10</title>
<path fill="none" stroke="black" d="M617.57,-149.831C627.75,-139.934 641.524,-126.543 653.031,-115.356"/>
<polygon fill="black" stroke="black" points="655.474,-117.862 660.204,-108.381 650.595,-112.843 655.474,-117.862"/>
</g>
<!-- 12 -->
<g id="node19" class="node"><title>12</title>
<ellipse fill="none" stroke="black" cx="891" cy="-92.9965" rx="27" ry="18"/>
<text text-anchor="middle" x="891" y="-89.2965" font-family="Times,serif" font-size="14.00">12</text>
</g>
<!-- 8&#45;&gt;12 -->
<g id="edge30" class="edge"><title>8&#45;&gt;12</title>
<path fill="none" stroke="black" d="M623.548,-153.104C628.503,-150.813 633.855,-148.606 639,-146.997 731.886,-117.941 762.114,-140.052 855,-110.997 856.93,-110.393 858.888,-109.705 860.844,-108.961"/>
<polygon fill="black" stroke="black" points="862.61,-112.014 870.452,-104.889 859.879,-105.568 862.61,-112.014"/>
</g>
<!-- 8&#45;&gt;24 -->
<g id="edge29" class="edge"><title>8&#45;&gt;24</title>
<path fill="none" stroke="black" d="M603,-146.693C603,-138.979 603,-129.709 603,-121.109"/>
<polygon fill="black" stroke="black" points="606.5,-121.101 603,-111.101 599.5,-121.101 606.5,-121.101"/>
</g>
<!-- 5 -->
<g id="node11" class="node"><title>5</title>
<ellipse fill="none" stroke="black" cx="526" cy="-92.9965" rx="27" ry="18"/>
<text text-anchor="middle" x="526" y="-89.2965" font-family="Times,serif" font-size="14.00">5</text>
</g>
<!-- 4&#45;&gt;5 -->
<g id="edge18" class="edge"><title>4&#45;&gt;5</title>
<path fill="none" stroke="black" d="M407.81,-153.517C431.148,-141.764 469.207,-122.597 495.813,-109.199"/>
<polygon fill="black" stroke="black" points="497.691,-112.172 505.048,-104.548 494.542,-105.92 497.691,-112.172"/>
</g>
<!-- 4&#45;&gt;36 -->
<g id="edge15" class="edge"><title>4&#45;&gt;36</title>
<path fill="none" stroke="black" d="M407.041,-152.828C412.105,-150.488 417.633,-148.329 423,-146.997 764.986,-62.1093 873.014,-195.884 1215,-110.997 1217.18,-110.455 1219.39,-109.778 1221.58,-109.007"/>
<polygon fill="black" stroke="black" points="1223.03,-112.194 1230.96,-105.165 1220.38,-105.716 1223.03,-112.194"/>
</g>
<!-- 4&#45;&gt;20 -->
<g id="edge16" class="edge"><title>4&#45;&gt;20</title>
<path fill="none" stroke="black" d="M397.875,-148.461C404.155,-139.489 412.187,-128.015 419.258,-117.914"/>
<polygon fill="black" stroke="black" points="422.288,-119.688 425.156,-109.488 416.554,-115.674 422.288,-119.688"/>
</g>
<!-- 4&#45;&gt;12 -->
<g id="edge17" class="edge"><title>4&#45;&gt;12</title>
<path fill="none" stroke="black" d="M407.458,-152.796C412.417,-150.518 417.793,-148.394 423,-146.997 609.083,-97.0639 668.917,-160.929 855,-110.997 856.953,-110.473 858.929,-109.846 860.898,-109.148"/>
<polygon fill="black" stroke="black" points="862.615,-112.227 870.542,-105.197 859.961,-105.75 862.615,-112.227"/>
</g>
<!-- 3 -->
<g id="node12" class="node"><title>3</title>
<ellipse fill="none" stroke="black" cx="355" cy="-92.9965" rx="27" ry="18"/>
<text text-anchor="middle" x="355" y="-89.2965" font-family="Times,serif" font-size="14.00">3</text>
</g>
<!-- 2&#45;&gt;3 -->
<g id="edge13" class="edge"><title>2&#45;&gt;3</title>
<path fill="none" stroke="black" d="M119.586,-153.224C124.54,-150.928 129.881,-148.689 135,-146.997 212.461,-121.388 237.051,-135.078 315,-110.997 317.933,-110.09 320.945,-109.043 323.935,-107.922"/>
<polygon fill="black" stroke="black" points="325.313,-111.14 333.295,-104.173 322.71,-104.642 325.313,-111.14"/>
</g>
<!-- 2&#45;&gt;34 -->
<g id="edge10" class="edge"><title>2&#45;&gt;34</title>
<path fill="none" stroke="black" d="M119.037,-152.814C124.102,-150.474 129.631,-148.318 135,-146.997 508.188,-55.1129 625.812,-202.88 999,-110.997 1001.18,-110.46 1003.39,-109.785 1005.58,-109.016"/>
<polygon fill="black" stroke="black" points="1007.03,-112.204 1014.96,-105.179 1004.38,-105.725 1007.03,-112.204"/>
</g>
<!-- 2&#45;&gt;18 -->
<g id="edge11" class="edge"><title>2&#45;&gt;18</title>
<path fill="none" stroke="black" d="M120.18,-153.614C125.014,-151.351 130.155,-149.027 135,-146.997 172.361,-131.336 216.148,-115.579 245.543,-105.366"/>
<polygon fill="black" stroke="black" points="246.997,-108.567 255.306,-101.994 244.711,-101.951 246.997,-108.567"/>
</g>
<!-- 2&#45;&gt;10 -->
<g id="edge12" class="edge"><title>2&#45;&gt;10</title>
<path fill="none" stroke="black" d="M119.066,-152.927C124.13,-150.584 129.651,-148.398 135,-146.997 352.238,-90.0794 421.762,-167.914 639,-110.997 641.173,-110.427 643.374,-109.728 645.562,-108.942"/>
<polygon fill="black" stroke="black" points="647.031,-112.122 654.934,-105.066 644.356,-105.654 647.031,-112.122"/>
</g>
<!-- 1&#45;&gt;33 -->
<g id="edge7" class="edge"><title>1&#45;&gt;33</title>
<path fill="none" stroke="black" d="M263.037,-152.814C268.102,-150.474 273.631,-148.318 279,-146.997 652.188,-55.1129 769.812,-202.88 1143,-110.997 1145.18,-110.46 1147.39,-109.785 1149.58,-109.016"/>
<polygon fill="black" stroke="black" points="1151.03,-112.204 1158.96,-105.179 1148.38,-105.725 1151.03,-112.204"/>
</g>
<!-- 1&#45;&gt;5 -->
<g id="edge8" class="edge"><title>1&#45;&gt;5</title>
<path fill="none" stroke="black" d="M263.571,-153.176C268.525,-150.882 273.87,-148.656 279,-146.997 362.023,-120.146 387.342,-132.136 472,-110.997 478.791,-109.301 485.983,-107.233 492.827,-105.131"/>
<polygon fill="black" stroke="black" points="494.039,-108.419 502.518,-102.067 491.929,-101.744 494.039,-108.419"/>
</g>
<!-- 1&#45;&gt;3 -->
<g id="edge9" class="edge"><title>1&#45;&gt;3</title>
<path fill="none" stroke="black" d="M261.999,-152.122C279.94,-140.909 307.051,-123.965 327.38,-111.259"/>
<polygon fill="black" stroke="black" points="329.283,-114.197 335.908,-105.929 325.573,-108.261 329.283,-114.197"/>
</g>
<!-- 33&#45;&gt;37 -->
<g id="edge100" class="edge"><title>33&#45;&gt;37</title>
<path fill="none" stroke="black" d="M1197.81,-79.5425C1215.84,-67.6072 1243.14,-49.5361 1262.78,-36.5308"/>
<polygon fill="black" stroke="black" points="1264.8,-39.3908 1271.21,-30.9521 1260.94,-33.5539 1264.8,-39.3908"/>
</g>
<!-- 35 -->
<g id="node16" class="node"><title>35</title>
<ellipse fill="none" stroke="black" cx="1143" cy="-19.4983" rx="27" ry="18"/>
<text text-anchor="middle" x="1143" y="-15.7983" font-family="Times,serif" font-size="14.00">35</text>
</g>
<!-- 33&#45;&gt;35 -->
<g id="edge101" class="edge"><title>33&#45;&gt;35</title>
<path fill="none" stroke="black" d="M1170.83,-75.7725C1166.43,-67.0301 1160.9,-56.0405 1155.92,-46.1678"/>
<polygon fill="black" stroke="black" points="1159.01,-44.512 1151.39,-37.1543 1152.76,-47.66 1159.01,-44.512"/>
</g>
<!-- 5&#45;&gt;37 -->
<g id="edge19" class="edge"><title>5&#45;&gt;37</title>
<path fill="none" stroke="black" d="M547.258,-81.6042C553.481,-78.9989 560.391,-76.5154 567,-74.9965 832.547,-13.9659 908.304,-70.0437 1179,-38.9965 1205.96,-35.9043 1236.41,-30.5141 1258.09,-26.3473"/>
<polygon fill="black" stroke="black" points="1258.83,-29.7688 1267.97,-24.4155 1257.49,-22.8988 1258.83,-29.7688"/>
</g>
<!-- 3&#45;&gt;35 -->
<g id="edge14" class="edge"><title>3&#45;&gt;35</title>
<path fill="none" stroke="black" d="M377.045,-82.2219C384.231,-79.4298 392.334,-76.6883 400,-74.9965 408.73,-73.0699 957.058,-33.7871 1106.01,-23.1401"/>
<polygon fill="black" stroke="black" points="1106.31,-26.628 1116.03,-22.4239 1105.81,-19.6458 1106.31,-26.628"/>
</g>
<!-- 34&#45;&gt;35 -->
<g id="edge102" class="edge"><title>34&#45;&gt;35</title>
<path fill="none" stroke="black" d="M1053.81,-79.5425C1071,-68.1624 1096.62,-51.2039 1115.99,-38.3773"/>
<polygon fill="black" stroke="black" points="1118,-41.2482 1124.4,-32.8096 1114.13,-35.4114 1118,-41.2482"/>
</g>
<!-- 26 -->
<g id="node32" class="node"><title>26</title>
<ellipse fill="none" stroke="black" cx="711" cy="-19.4983" rx="27" ry="18"/>
<text text-anchor="middle" x="711" y="-15.7983" font-family="Times,serif" font-size="14.00">26</text>
</g>
<!-- 18&#45;&gt;26 -->
<g id="edge66" class="edge"><title>18&#45;&gt;26</title>
<path fill="none" stroke="black" d="M300.217,-81.753C306.18,-79.2139 312.746,-76.7275 319,-74.9965 446.234,-39.7826 603.295,-26.7283 673.74,-22.4065"/>
<polygon fill="black" stroke="black" points="674.112,-25.8907 683.888,-21.8081 673.699,-18.9029 674.112,-25.8907"/>
</g>
<!-- 10&#45;&gt;26 -->
<g id="edge38" class="edge"><title>10&#45;&gt;26</title>
<path fill="none" stroke="black" d="M683.169,-75.7725C687.571,-67.0301 693.104,-56.0405 698.075,-46.1678"/>
<polygon fill="black" stroke="black" points="701.242,-47.66 702.614,-37.1543 694.99,-44.512 701.242,-47.66"/>
</g>
<!-- 36&#45;&gt;37 -->
<g id="edge103" class="edge"><title>36&#45;&gt;37</title>
<path fill="none" stroke="black" d="M1259.17,-75.7725C1263.57,-67.0301 1269.1,-56.0405 1274.08,-46.1678"/>
<polygon fill="black" stroke="black" points="1277.24,-47.66 1278.61,-37.1543 1270.99,-44.512 1277.24,-47.66"/>
</g>
<!-- 20&#45;&gt;28 -->
<g id="edge71" class="edge"><title>20&#45;&gt;28</title>
<path fill="none" stroke="black" d="M459.425,-83.6902C468.833,-80.6003 479.838,-77.2913 490,-74.9965 602.505,-49.5922 633.035,-56.7343 747,-38.9965 773.815,-34.823 804.281,-29.5567 826.003,-25.7114"/>
<polygon fill="black" stroke="black" points="826.678,-29.1465 835.91,-23.9489 825.451,-22.2547 826.678,-29.1465"/>
</g>
<!-- 12&#45;&gt;28 -->
<g id="edge43" class="edge"><title>12&#45;&gt;28</title>
<path fill="none" stroke="black" d="M882.831,-75.7725C878.429,-67.0301 872.896,-56.0405 867.925,-46.1678"/>
<polygon fill="black" stroke="black" points="871.01,-44.512 863.386,-37.1543 864.758,-47.66 871.01,-44.512"/>
</g>
<!-- 6 -->
<g id="node20" class="node"><title>6</title>
<ellipse fill="none" stroke="black" cx="405" cy="-236.997" rx="27" ry="18"/>
<text text-anchor="middle" x="405" y="-233.297" font-family="Times,serif" font-size="14.00">6</text>
</g>
<!-- 6&#45;&gt;4 -->
<g id="edge24" class="edge"><title>6&#45;&gt;4</title>
<path fill="none" stroke="black" d="M400.643,-219.051C398.609,-211.141 396.139,-201.536 393.863,-192.684"/>
<polygon fill="black" stroke="black" points="397.197,-191.599 391.317,-182.786 390.418,-193.342 397.197,-191.599"/>
</g>
<!-- 6&#45;&gt;2 -->
<g id="edge23" class="edge"><title>6&#45;&gt;2</title>
<path fill="none" stroke="black" d="M384.467,-225.057C379.511,-222.768 374.155,-220.574 369,-218.997 268.381,-188.211 235.619,-213.782 135,-182.997 133.067,-182.405 131.105,-181.727 129.147,-180.989"/>
<polygon fill="black" stroke="black" points="130.108,-177.596 119.533,-176.936 127.388,-184.046 130.108,-177.596"/>
</g>
<!-- 38 -->
<g id="node21" class="node"><title>38</title>
<ellipse fill="none" stroke="black" cx="1251" cy="-164.997" rx="27" ry="18"/>
<text text-anchor="middle" x="1251" y="-161.297" font-family="Times,serif" font-size="14.00">38</text>
</g>
<!-- 6&#45;&gt;38 -->
<g id="edge20" class="edge"><title>6&#45;&gt;38</title>
<path fill="none" stroke="black" d="M429.447,-229.048C443.284,-225.413 460.976,-221.26 477,-218.997 802.163,-173.073 896.413,-262.637 1215,-182.997 1217.18,-182.452 1219.39,-181.771 1221.58,-180.998"/>
<polygon fill="black" stroke="black" points="1223.03,-184.185 1230.96,-177.152 1220.38,-177.708 1223.03,-184.185"/>
</g>
<!-- 22 -->
<g id="node22" class="node"><title>22</title>
<ellipse fill="none" stroke="black" cx="315" cy="-164.997" rx="27" ry="18"/>
<text text-anchor="middle" x="315" y="-161.297" font-family="Times,serif" font-size="14.00">22</text>
</g>
<!-- 6&#45;&gt;22 -->
<g id="edge21" class="edge"><title>6&#45;&gt;22</title>
<path fill="none" stroke="black" d="M388.072,-222.83C374.495,-212.271 355.243,-197.297 339.908,-185.369"/>
<polygon fill="black" stroke="black" points="341.895,-182.481 331.852,-179.104 337.597,-188.006 341.895,-182.481"/>
</g>
<!-- 14 -->
<g id="node23" class="node"><title>14</title>
<ellipse fill="none" stroke="black" cx="819" cy="-164.997" rx="27" ry="18"/>
<text text-anchor="middle" x="819" y="-161.297" font-family="Times,serif" font-size="14.00">14</text>
</g>
<!-- 6&#45;&gt;14 -->
<g id="edge22" class="edge"><title>6&#45;&gt;14</title>
<path fill="none" stroke="black" d="M429.845,-229.387C443.652,-225.902 461.189,-221.784 477,-218.997 611.859,-195.224 651.363,-220.727 783,-182.997 784.943,-182.439 786.913,-181.788 788.877,-181.07"/>
<polygon fill="black" stroke="black" points="790.615,-184.138 798.506,-177.069 787.929,-177.674 790.615,-184.138"/>
</g>
<!-- 7 -->
<g id="node24" class="node"><title>7</title>
<ellipse fill="none" stroke="black" cx="531" cy="-164.997" rx="27" ry="18"/>
<text text-anchor="middle" x="531" y="-161.297" font-family="Times,serif" font-size="14.00">7</text>
</g>
<!-- 6&#45;&gt;7 -->
<g id="edge25" class="edge"><title>6&#45;&gt;7</title>
<path fill="none" stroke="black" d="M425.244,-224.75C446.002,-213.218 478.484,-195.172 501.975,-182.121"/>
<polygon fill="black" stroke="black" points="503.764,-185.131 510.806,-177.215 500.365,-179.012 503.764,-185.131"/>
</g>
<!-- 38&#45;&gt;34 -->
<g id="edge104" class="edge"><title>38&#45;&gt;34</title>
<path fill="none" stroke="black" d="M1229.97,-153.223C1225.13,-150.98 1219.95,-148.764 1215,-146.997 1152.87,-124.805 1133.13,-133.188 1071,-110.997 1069.14,-110.334 1067.26,-109.608 1065.37,-108.841"/>
<polygon fill="black" stroke="black" points="1066.59,-105.559 1056.03,-104.77 1063.8,-111.975 1066.59,-105.559"/>
</g>
<!-- 38&#45;&gt;36 -->
<g id="edge105" class="edge"><title>38&#45;&gt;36</title>
<path fill="none" stroke="black" d="M1251,-146.693C1251,-138.979 1251,-129.709 1251,-121.109"/>
<polygon fill="black" stroke="black" points="1254.5,-121.101 1251,-111.101 1247.5,-121.101 1254.5,-121.101"/>
</g>
<!-- 39 -->
<g id="node25" class="node"><title>39</title>
<ellipse fill="none" stroke="black" cx="1395" cy="-92.9965" rx="27" ry="18"/>
<text text-anchor="middle" x="1395" y="-89.2965" font-family="Times,serif" font-size="14.00">39</text>
</g>
<!-- 38&#45;&gt;39 -->
<g id="edge106" class="edge"><title>38&#45;&gt;39</title>
<path fill="none" stroke="black" d="M1272.25,-153.668C1296.6,-141.829 1336.72,-122.328 1364.43,-108.858"/>
<polygon fill="black" stroke="black" points="1366.2,-111.887 1373.67,-104.368 1363.14,-105.592 1366.2,-111.887"/>
</g>
<!-- 22&#45;&gt;18 -->
<g id="edge77" class="edge"><title>22&#45;&gt;18</title>
<path fill="none" stroke="black" d="M306.65,-147.761C302.288,-139.28 296.853,-128.711 291.959,-119.194"/>
<polygon fill="black" stroke="black" points="294.99,-117.436 287.304,-110.144 288.765,-120.637 294.99,-117.436"/>
</g>
<!-- 22&#45;&gt;20 -->
<g id="edge78" class="edge"><title>22&#45;&gt;20</title>
<path fill="none" stroke="black" d="M334.71,-152.594C354.486,-141.153 385.146,-123.416 407.556,-110.452"/>
<polygon fill="black" stroke="black" points="409.395,-113.431 416.298,-105.394 405.89,-107.372 409.395,-113.431"/>
</g>
<!-- 30 -->
<g id="node37" class="node"><title>30</title>
<ellipse fill="none" stroke="black" cx="819" cy="-92.9965" rx="27" ry="18"/>
<text text-anchor="middle" x="819" y="-89.2965" font-family="Times,serif" font-size="14.00">30</text>
</g>
<!-- 22&#45;&gt;30 -->
<g id="edge76" class="edge"><title>22&#45;&gt;30</title>
<path fill="none" stroke="black" d="M335.458,-152.796C340.417,-150.518 345.793,-148.394 351,-146.997 537.083,-97.0639 596.917,-160.929 783,-110.997 784.953,-110.473 786.929,-109.846 788.898,-109.148"/>
<polygon fill="black" stroke="black" points="790.615,-112.227 798.542,-105.197 787.961,-105.75 790.615,-112.227"/>
</g>
<!-- 14&#45;&gt;10 -->
<g id="edge49" class="edge"><title>14&#45;&gt;10</title>
<path fill="none" stroke="black" d="M797.752,-153.668C773.398,-141.829 733.281,-122.328 705.572,-108.858"/>
<polygon fill="black" stroke="black" points="706.859,-105.592 696.335,-104.368 703.798,-111.887 706.859,-105.592"/>
</g>
<!-- 14&#45;&gt;12 -->
<g id="edge50" class="edge"><title>14&#45;&gt;12</title>
<path fill="none" stroke="black" d="M833.57,-149.831C843.75,-139.934 857.524,-126.543 869.031,-115.356"/>
<polygon fill="black" stroke="black" points="871.474,-117.862 876.204,-108.381 866.595,-112.843 871.474,-117.862"/>
</g>
<!-- 14&#45;&gt;30 -->
<g id="edge48" class="edge"><title>14&#45;&gt;30</title>
<path fill="none" stroke="black" d="M819,-146.693C819,-138.979 819,-129.709 819,-121.109"/>
<polygon fill="black" stroke="black" points="822.5,-121.101 819,-111.101 815.5,-121.101 822.5,-121.101"/>
</g>
<!-- 7&#45;&gt;5 -->
<g id="edge28" class="edge"><title>7&#45;&gt;5</title>
<path fill="none" stroke="black" d="M529.764,-146.693C529.213,-138.979 528.551,-129.709 527.937,-121.109"/>
<polygon fill="black" stroke="black" points="531.425,-120.826 527.222,-111.101 524.443,-121.325 531.425,-120.826"/>
</g>
<!-- 7&#45;&gt;3 -->
<g id="edge27" class="edge"><title>7&#45;&gt;3</title>
<path fill="none" stroke="black" d="M509.806,-153.647C504.972,-151.382 499.835,-149.05 495,-146.997 493.688,-146.439 428.358,-121.73 387.415,-106.25"/>
<polygon fill="black" stroke="black" points="388.427,-102.891 377.835,-102.628 385.951,-109.438 388.427,-102.891"/>
</g>
<!-- 7&#45;&gt;39 -->
<g id="edge26" class="edge"><title>7&#45;&gt;39</title>
<path fill="none" stroke="black" d="M551.041,-152.828C556.105,-150.488 561.633,-148.329 567,-146.997 908.986,-62.1093 1017.01,-195.884 1359,-110.997 1361.18,-110.455 1363.39,-109.778 1365.58,-109.007"/>
<polygon fill="black" stroke="black" points="1367.03,-112.194 1374.96,-105.165 1364.38,-105.716 1367.03,-112.194"/>
</g>
<!-- 39&#45;&gt;37 -->
<g id="edge108" class="edge"><title>39&#45;&gt;37</title>
<path fill="none" stroke="black" d="M1376.19,-79.5425C1358.16,-67.6072 1330.86,-49.5361 1311.22,-36.5308"/>
<polygon fill="black" stroke="black" points="1313.06,-33.5539 1302.79,-30.9521 1309.2,-39.3908 1313.06,-33.5539"/>
</g>
<!-- 39&#45;&gt;35 -->
<g id="edge107" class="edge"><title>39&#45;&gt;35</title>
<path fill="none" stroke="black" d="M1373.97,-81.2306C1369.13,-78.9873 1363.94,-76.7689 1359,-74.9965 1297.11,-52.8146 1222.18,-36.0622 1178.81,-27.3088"/>
<polygon fill="black" stroke="black" points="1179.24,-23.8262 1168.75,-25.3082 1177.88,-30.6917 1179.24,-23.8262"/>
</g>
<!-- 24&#45;&gt;28 -->
<g id="edge85" class="edge"><title>24&#45;&gt;28</title>
<path fill="none" stroke="black" d="M624.031,-81.2306C628.873,-78.9873 634.055,-76.7689 639,-74.9965 704.28,-51.5984 784.078,-34.2414 826.033,-25.9415"/>
<polygon fill="black" stroke="black" points="826.706,-29.3763 835.852,-24.0284 825.367,-22.5055 826.706,-29.3763"/>
</g>
<!-- 24&#45;&gt;26 -->
<g id="edge86" class="edge"><title>24&#45;&gt;26</title>
<path fill="none" stroke="black" d="M621.812,-79.5425C639.002,-68.1624 664.618,-51.2039 683.993,-38.3773"/>
<polygon fill="black" stroke="black" points="685.997,-41.2482 692.403,-32.8096 682.133,-35.4114 685.997,-41.2482"/>
</g>
<!-- 9 -->
<g id="node27" class="node"><title>9</title>
<ellipse fill="none" stroke="black" cx="711" cy="-236.997" rx="27" ry="18"/>
<text text-anchor="middle" x="711" y="-233.297" font-family="Times,serif" font-size="14.00">9</text>
</g>
<!-- 9&#45;&gt;8 -->
<g id="edge37" class="edge"><title>9&#45;&gt;8</title>
<path fill="none" stroke="black" d="M692.188,-223.803C674.998,-212.662 649.382,-196.059 630.007,-183.501"/>
<polygon fill="black" stroke="black" points="631.892,-180.552 621.597,-178.05 628.084,-186.426 631.892,-180.552"/>
</g>
<!-- 9&#45;&gt;1 -->
<g id="edge34" class="edge"><title>9&#45;&gt;1</title>
<path fill="none" stroke="black" d="M684.309,-233.222C596.203,-223.995 318.015,-194.284 279,-182.997 277.058,-182.435 275.09,-181.779 273.127,-181.059"/>
<polygon fill="black" stroke="black" points="274.076,-177.663 263.499,-177.051 271.386,-184.125 274.076,-177.663"/>
</g>
<!-- 41 -->
<g id="node28" class="node"><title>41</title>
<ellipse fill="none" stroke="black" cx="1683" cy="-164.997" rx="27" ry="18"/>
<text text-anchor="middle" x="1683" y="-161.297" font-family="Times,serif" font-size="14.00">41</text>
</g>
<!-- 9&#45;&gt;41 -->
<g id="edge32" class="edge"><title>9&#45;&gt;41</title>
<path fill="none" stroke="black" d="M736.644,-231.125C758.461,-227.182 790.67,-221.833 819,-218.997 1002.26,-200.649 1468.21,-227.189 1647,-182.997 1649.18,-182.458 1651.39,-181.781 1653.58,-181.012"/>
<polygon fill="black" stroke="black" points="1655.03,-184.199 1662.96,-177.172 1652.38,-177.721 1655.03,-184.199"/>
</g>
<!-- 25 -->
<g id="node29" class="node"><title>25</title>
<ellipse fill="none" stroke="black" cx="747" cy="-164.997" rx="27" ry="18"/>
<text text-anchor="middle" x="747" y="-161.297" font-family="Times,serif" font-size="14.00">25</text>
</g>
<!-- 9&#45;&gt;25 -->
<g id="edge33" class="edge"><title>9&#45;&gt;25</title>
<path fill="none" stroke="black" d="M719.35,-219.761C723.712,-211.28 729.147,-200.711 734.041,-191.194"/>
<polygon fill="black" stroke="black" points="737.235,-192.637 738.696,-182.144 731.01,-189.436 737.235,-192.637"/>
</g>
<!-- 13 -->
<g id="node30" class="node"><title>13</title>
<ellipse fill="none" stroke="black" cx="963" cy="-164.997" rx="27" ry="18"/>
<text text-anchor="middle" x="963" y="-161.297" font-family="Times,serif" font-size="14.00">13</text>
</g>
<!-- 9&#45;&gt;13 -->
<g id="edge35" class="edge"><title>9&#45;&gt;13</title>
<path fill="none" stroke="black" d="M736.757,-231.414C777.75,-223.738 860.042,-206.75 927,-182.997 928.905,-182.321 930.845,-181.577 932.787,-180.791"/>
<polygon fill="black" stroke="black" points="934.596,-183.82 942.359,-176.609 931.794,-177.405 934.596,-183.82"/>
</g>
<!-- 11 -->
<g id="node31" class="node"><title>11</title>
<ellipse fill="none" stroke="black" cx="675" cy="-164.997" rx="27" ry="18"/>
<text text-anchor="middle" x="675" y="-161.297" font-family="Times,serif" font-size="14.00">11</text>
</g>
<!-- 9&#45;&gt;11 -->
<g id="edge36" class="edge"><title>9&#45;&gt;11</title>
<path fill="none" stroke="black" d="M702.65,-219.761C698.288,-211.28 692.853,-200.711 687.959,-191.194"/>
<polygon fill="black" stroke="black" points="690.99,-189.436 683.304,-182.144 684.765,-192.637 690.99,-189.436"/>
</g>
<!-- 41&#45;&gt;33 -->
<g id="edge115" class="edge"><title>41&#45;&gt;33</title>
<path fill="none" stroke="black" d="M1662.54,-152.796C1657.58,-150.518 1652.21,-148.394 1647,-146.997 1460.92,-97.0639 1401.08,-160.929 1215,-110.997 1213.05,-110.473 1211.07,-109.846 1209.1,-109.148"/>
<polygon fill="black" stroke="black" points="1210.04,-105.75 1199.46,-105.197 1207.38,-112.227 1210.04,-105.75"/>
</g>
<!-- 43 -->
<g id="node33" class="node"><title>43</title>
<ellipse fill="none" stroke="black" cx="1566" cy="-92.9965" rx="27" ry="18"/>
<text text-anchor="middle" x="1566" y="-89.2965" font-family="Times,serif" font-size="14.00">43</text>
</g>
<!-- 41&#45;&gt;43 -->
<g id="edge117" class="edge"><title>41&#45;&gt;43</title>
<path fill="none" stroke="black" d="M1663.42,-152.28C1644.52,-140.974 1615.71,-123.735 1594.31,-110.935"/>
<polygon fill="black" stroke="black" points="1596.03,-107.882 1585.65,-105.751 1592.43,-113.889 1596.03,-107.882"/>
</g>
<!-- 45 -->
<g id="node35" class="node"><title>45</title>
<ellipse fill="none" stroke="black" cx="1818" cy="-92.9965" rx="27" ry="18"/>
<text text-anchor="middle" x="1818" y="-89.2965" font-family="Times,serif" font-size="14.00">45</text>
</g>
<!-- 41&#45;&gt;45 -->
<g id="edge116" class="edge"><title>41&#45;&gt;45</title>
<path fill="none" stroke="black" d="M1703.8,-153.212C1726.46,-141.463 1762.89,-122.571 1788.5,-109.293"/>
<polygon fill="black" stroke="black" points="1790.13,-112.388 1797.4,-104.678 1786.91,-106.174 1790.13,-112.388"/>
</g>
<!-- 25&#45;&gt;24 -->
<g id="edge89" class="edge"><title>25&#45;&gt;24</title>
<path fill="none" stroke="black" d="M725.752,-153.668C701.398,-141.829 661.281,-122.328 633.572,-108.858"/>
<polygon fill="black" stroke="black" points="634.859,-105.592 624.335,-104.368 631.798,-111.887 634.859,-105.592"/>
</g>
<!-- 27 -->
<g id="node34" class="node"><title>27</title>
<ellipse fill="none" stroke="black" cx="747" cy="-92.9965" rx="27" ry="18"/>
<text text-anchor="middle" x="747" y="-89.2965" font-family="Times,serif" font-size="14.00">27</text>
</g>
<!-- 25&#45;&gt;27 -->
<g id="edge88" class="edge"><title>25&#45;&gt;27</title>
<path fill="none" stroke="black" d="M747,-146.693C747,-138.979 747,-129.709 747,-121.109"/>
<polygon fill="black" stroke="black" points="750.5,-121.101 747,-111.101 743.5,-121.101 750.5,-121.101"/>
</g>
<!-- 29 -->
<g id="node36" class="node"><title>29</title>
<ellipse fill="none" stroke="black" cx="963" cy="-92.9965" rx="27" ry="18"/>
<text text-anchor="middle" x="963" y="-89.2965" font-family="Times,serif" font-size="14.00">29</text>
</g>
<!-- 25&#45;&gt;29 -->
<g id="edge87" class="edge"><title>25&#45;&gt;29</title>
<path fill="none" stroke="black" d="M768.028,-153.223C772.871,-150.98 778.053,-148.764 783,-146.997 845.125,-124.805 864.875,-133.188 927,-110.997 928.855,-110.334 930.743,-109.608 932.634,-108.841"/>
<polygon fill="black" stroke="black" points="934.204,-111.975 941.972,-104.77 931.406,-105.559 934.204,-111.975"/>
</g>
<!-- 13&#45;&gt;5 -->
<g id="edge46" class="edge"><title>13&#45;&gt;5</title>
<path fill="none" stroke="black" d="M942.525,-152.858C937.567,-150.578 932.195,-148.437 927,-146.997 772.046,-104.041 722.943,-150.212 567,-110.997 563.609,-110.144 560.132,-109.059 556.706,-107.852"/>
<polygon fill="black" stroke="black" points="557.889,-104.557 547.3,-104.215 555.365,-111.086 557.889,-104.557"/>
</g>
<!-- 13&#45;&gt;12 -->
<g id="edge47" class="edge"><title>13&#45;&gt;12</title>
<path fill="none" stroke="black" d="M948.43,-149.831C938.25,-139.934 924.476,-126.543 912.969,-115.356"/>
<polygon fill="black" stroke="black" points="915.405,-112.843 905.796,-108.381 910.526,-117.862 915.405,-112.843"/>
</g>
<!-- 13&#45;&gt;45 -->
<g id="edge44" class="edge"><title>13&#45;&gt;45</title>
<path fill="none" stroke="black" d="M983.046,-152.848C988.11,-150.507 993.637,-148.342 999,-146.997 1152.44,-108.488 1552.64,-127.319 1710,-110.997 1734.23,-108.484 1761.3,-104.219 1782.28,-100.589"/>
<polygon fill="black" stroke="black" points="1783.11,-103.998 1792.35,-98.8158 1781.9,-97.1036 1783.11,-103.998"/>
</g>
<!-- 13&#45;&gt;29 -->
<g id="edge45" class="edge"><title>13&#45;&gt;29</title>
<path fill="none" stroke="black" d="M963,-146.693C963,-138.979 963,-129.709 963,-121.109"/>
<polygon fill="black" stroke="black" points="966.5,-121.101 963,-111.101 959.5,-121.101 966.5,-121.101"/>
</g>
<!-- 11&#45;&gt;3 -->
<g id="edge41" class="edge"><title>11&#45;&gt;3</title>
<path fill="none" stroke="black" d="M654.47,-153.045C649.515,-150.757 644.158,-148.566 639,-146.997 536.231,-115.73 503.937,-138.13 400,-110.997 395.609,-109.85 391.054,-108.424 386.603,-106.89"/>
<polygon fill="black" stroke="black" points="387.723,-103.572 377.129,-103.421 385.316,-110.146 387.723,-103.572"/>
</g>
<!-- 11&#45;&gt;10 -->
<g id="edge42" class="edge"><title>11&#45;&gt;10</title>
<path fill="none" stroke="black" d="M675,-146.693C675,-138.979 675,-129.709 675,-121.109"/>
<polygon fill="black" stroke="black" points="678.5,-121.101 675,-111.101 671.5,-121.101 678.5,-121.101"/>
</g>
<!-- 11&#45;&gt;43 -->
<g id="edge39" class="edge"><title>11&#45;&gt;43</title>
<path fill="none" stroke="black" d="M695.04,-152.826C700.105,-150.486 705.633,-148.327 711,-146.997 1056.89,-61.2348 1161.08,-173.025 1512,-110.997 1518.96,-109.767 1526.27,-107.887 1533.18,-105.819"/>
<polygon fill="black" stroke="black" points="1534.47,-109.08 1542.94,-102.709 1532.35,-102.411 1534.47,-109.08"/>
</g>
<!-- 11&#45;&gt;27 -->
<g id="edge40" class="edge"><title>11&#45;&gt;27</title>
<path fill="none" stroke="black" d="M689.57,-149.831C699.75,-139.934 713.524,-126.543 725.031,-115.356"/>
<polygon fill="black" stroke="black" points="727.474,-117.862 732.204,-108.381 722.595,-112.843 727.474,-117.862"/>
</g>
<!-- 43&#45;&gt;35 -->
<g id="edge122" class="edge"><title>43&#45;&gt;35</title>
<path fill="none" stroke="black" d="M1542.57,-83.7016C1533.16,-80.6132 1522.16,-77.3023 1512,-74.9965 1401.24,-49.8596 1371.31,-55.9401 1259,-38.9965 1232.24,-34.96 1202.06,-30.1387 1179.19,-26.4303"/>
<polygon fill="black" stroke="black" points="1179.67,-22.9621 1169.24,-24.8116 1178.55,-29.8714 1179.67,-22.9621"/>
</g>
<!-- 27&#45;&gt;26 -->
<g id="edge90" class="edge"><title>27&#45;&gt;26</title>
<path fill="none" stroke="black" d="M738.831,-75.7725C734.429,-67.0301 728.896,-56.0405 723.925,-46.1678"/>
<polygon fill="black" stroke="black" points="727.01,-44.512 719.386,-37.1543 720.758,-47.66 727.01,-44.512"/>
</g>
<!-- 45&#45;&gt;37 -->
<g id="edge127" class="edge"><title>45&#45;&gt;37</title>
<path fill="none" stroke="black" d="M1791.84,-87.6691C1769.99,-84.1043 1738,-79.0026 1710,-74.9965 1562.5,-53.8901 1385.52,-32.2911 1316.54,-24.0157"/>
<polygon fill="black" stroke="black" points="1316.77,-20.5176 1306.42,-22.8041 1315.93,-27.468 1316.77,-20.5176"/>
</g>
<!-- 29&#45;&gt;28 -->
<g id="edge91" class="edge"><title>29&#45;&gt;28</title>
<path fill="none" stroke="black" d="M944.188,-79.5425C926.159,-67.6072 898.862,-49.5361 879.218,-36.5308"/>
<polygon fill="black" stroke="black" points="881.061,-33.5539 870.791,-30.9521 877.197,-39.3908 881.061,-33.5539"/>
</g>
<!-- 30&#45;&gt;28 -->
<g id="edge93" class="edge"><title>30&#45;&gt;28</title>
<path fill="none" stroke="black" d="M827.169,-75.7725C831.571,-67.0301 837.104,-56.0405 842.075,-46.1678"/>
<polygon fill="black" stroke="black" points="845.242,-47.66 846.614,-37.1543 838.99,-44.512 845.242,-47.66"/>
</g>
<!-- 30&#45;&gt;26 -->
<g id="edge92" class="edge"><title>30&#45;&gt;26</title>
<path fill="none" stroke="black" d="M800.188,-79.5425C782.998,-68.1624 757.382,-51.2039 738.007,-38.3773"/>
<polygon fill="black" stroke="black" points="739.867,-35.4114 729.597,-32.8096 736.003,-41.2482 739.867,-35.4114"/>
</g>
<!-- 15 -->
<g id="node38" class="node"><title>15</title>
<ellipse fill="none" stroke="black" cx="855" cy="-236.997" rx="27" ry="18"/>
<text text-anchor="middle" x="855" y="-233.297" font-family="Times,serif" font-size="14.00">15</text>
</g>
<!-- 15&#45;&gt;14 -->
<g id="edge56" class="edge"><title>15&#45;&gt;14</title>
<path fill="none" stroke="black" d="M846.65,-219.761C842.288,-211.28 836.853,-200.711 831.959,-191.194"/>
<polygon fill="black" stroke="black" points="834.99,-189.436 827.304,-182.144 828.765,-192.637 834.99,-189.436"/>
</g>
<!-- 15&#45;&gt;7 -->
<g id="edge53" class="edge"><title>15&#45;&gt;7</title>
<path fill="none" stroke="black" d="M829.185,-231.64C763.221,-220.451 591.922,-191.023 567,-182.997 565.076,-182.377 563.121,-181.677 561.168,-180.923"/>
<polygon fill="black" stroke="black" points="562.139,-177.532 551.568,-176.827 559.392,-183.97 562.139,-177.532"/>
</g>
<!-- 15&#45;&gt;13 -->
<g id="edge55" class="edge"><title>15&#45;&gt;13</title>
<path fill="none" stroke="black" d="M873.812,-223.803C891.002,-212.662 916.618,-196.059 935.993,-183.501"/>
<polygon fill="black" stroke="black" points="937.916,-186.426 944.403,-178.05 934.108,-180.552 937.916,-186.426"/>
</g>
<!-- 15&#45;&gt;11 -->
<g id="edge54" class="edge"><title>15&#45;&gt;11</title>
<path fill="none" stroke="black" d="M831.306,-227.999C802.563,-218.131 752.766,-200.504 711,-182.997 709.183,-182.235 707.325,-181.432 705.457,-180.607"/>
<polygon fill="black" stroke="black" points="706.731,-177.342 696.18,-176.379 703.828,-183.711 706.731,-177.342"/>
</g>
<!-- 47 -->
<g id="node39" class="node"><title>47</title>
<ellipse fill="none" stroke="black" cx="1971" cy="-164.997" rx="27" ry="18"/>
<text text-anchor="middle" x="1971" y="-161.297" font-family="Times,serif" font-size="14.00">47</text>
</g>
<!-- 15&#45;&gt;47 -->
<g id="edge51" class="edge"><title>15&#45;&gt;47</title>
<path fill="none" stroke="black" d="M881.84,-233.974C927.885,-230.553 1024.91,-223.549 1107,-218.997 1290.89,-208.798 1756.21,-227.189 1935,-182.997 1937.18,-182.458 1939.39,-181.781 1941.58,-181.012"/>
<polygon fill="black" stroke="black" points="1943.03,-184.199 1950.96,-177.172 1940.38,-177.721 1943.03,-184.199"/>
</g>
<!-- 31 -->
<g id="node40" class="node"><title>31</title>
<ellipse fill="none" stroke="black" cx="891" cy="-164.997" rx="27" ry="18"/>
<text text-anchor="middle" x="891" y="-161.297" font-family="Times,serif" font-size="14.00">31</text>
</g>
<!-- 15&#45;&gt;31 -->
<g id="edge52" class="edge"><title>15&#45;&gt;31</title>
<path fill="none" stroke="black" d="M863.35,-219.761C867.712,-211.28 873.147,-200.711 878.041,-191.194"/>
<polygon fill="black" stroke="black" points="881.235,-192.637 882.696,-182.144 875.01,-189.436 881.235,-192.637"/>
</g>
<!-- 47&#45;&gt;39 -->
<g id="edge134" class="edge"><title>47&#45;&gt;39</title>
<path fill="none" stroke="black" d="M1950.93,-152.931C1945.87,-150.588 1940.35,-148.401 1935,-146.997 1721.66,-90.9528 1655.41,-158.467 1440,-110.997 1435.57,-110.02 1430.99,-108.692 1426.53,-107.205"/>
<polygon fill="black" stroke="black" points="1427.64,-103.885 1417.04,-103.774 1425.26,-110.468 1427.64,-103.885"/>
</g>
<!-- 47&#45;&gt;43 -->
<g id="edge135" class="edge"><title>47&#45;&gt;43</title>
<path fill="none" stroke="black" d="M1950.5,-152.937C1945.55,-150.653 1940.18,-148.491 1935,-146.997 1807.25,-110.135 1768.91,-134.31 1638,-110.997 1625.78,-108.819 1612.51,-105.862 1600.74,-103.024"/>
<polygon fill="black" stroke="black" points="1601.4,-99.5801 1590.85,-100.584 1599.72,-106.377 1601.4,-99.5801"/>
</g>
<!-- 47&#45;&gt;45 -->
<g id="edge136" class="edge"><title>47&#45;&gt;45</title>
<path fill="none" stroke="black" d="M1949.71,-153.873C1944.88,-151.596 1939.77,-149.202 1935,-146.997 1906.01,-133.584 1872.82,-118.586 1849.22,-107.976"/>
<polygon fill="black" stroke="black" points="1850.6,-104.76 1840.04,-103.857 1847.73,-111.146 1850.6,-104.76"/>
</g>
<!-- 31&#45;&gt;27 -->
<g id="edge94" class="edge"><title>31&#45;&gt;27</title>
<path fill="none" stroke="black" d="M869.752,-153.668C845.398,-141.829 805.281,-122.328 777.572,-108.858"/>
<polygon fill="black" stroke="black" points="778.859,-105.592 768.335,-104.368 775.798,-111.887 778.859,-105.592"/>
</g>
<!-- 31&#45;&gt;29 -->
<g id="edge95" class="edge"><title>31&#45;&gt;29</title>
<path fill="none" stroke="black" d="M905.57,-149.831C915.75,-139.934 929.524,-126.543 941.031,-115.356"/>
<polygon fill="black" stroke="black" points="943.474,-117.862 948.204,-108.381 938.595,-112.843 943.474,-117.862"/>
</g>
<!-- 31&#45;&gt;30 -->
<g id="edge96" class="edge"><title>31&#45;&gt;30</title>
<path fill="none" stroke="black" d="M876.43,-149.831C866.25,-139.934 852.476,-126.543 840.969,-115.356"/>
<polygon fill="black" stroke="black" points="843.405,-112.843 833.796,-108.381 838.526,-117.862 843.405,-112.843"/>
</g>
<!-- 17 -->
<g id="node41" class="node"><title>17</title>
<ellipse fill="none" stroke="black" cx="333" cy="-236.997" rx="27" ry="18"/>
<text text-anchor="middle" x="333" y="-233.297" font-family="Times,serif" font-size="14.00">17</text>
</g>
<!-- 17&#45;&gt;16 -->
<g id="edge65" class="edge"><title>17&#45;&gt;16</title>
<path fill="none" stroke="black" d="M310.86,-226.613C303.669,-223.842 295.587,-221.014 288,-218.997 190.13,-192.968 159.751,-212.916 63,-182.997 61.0685,-182.399 59.1085,-181.717 57.1516,-180.976"/>
<polygon fill="black" stroke="black" points="58.1139,-177.583 47.5402,-176.914 55.3888,-184.03 58.1139,-177.583"/>
</g>
<!-- 17&#45;&gt;1 -->
<g id="edge61" class="edge"><title>17&#45;&gt;1</title>
<path fill="none" stroke="black" d="M316.072,-222.83C302.495,-212.271 283.243,-197.297 267.908,-185.369"/>
<polygon fill="black" stroke="black" points="269.895,-182.481 259.852,-179.104 265.597,-188.006 269.895,-182.481"/>
</g>
<!-- 17&#45;&gt;25 -->
<g id="edge62" class="edge"><title>17&#45;&gt;25</title>
<path fill="none" stroke="black" d="M353.481,-224.878C358.439,-222.596 363.808,-220.45 369,-218.997 516.178,-177.783 563.822,-224.21 711,-182.997 712.947,-182.451 714.919,-181.809 716.885,-181.098"/>
<polygon fill="black" stroke="black" points="718.615,-184.17 726.519,-177.115 715.941,-177.701 718.615,-184.17"/>
</g>
<!-- 49 -->
<g id="node42" class="node"><title>49</title>
<ellipse fill="none" stroke="black" cx="1179" cy="-164.997" rx="27" ry="18"/>
<text text-anchor="middle" x="1179" y="-161.297" font-family="Times,serif" font-size="14.00">49</text>
</g>
<!-- 17&#45;&gt;49 -->
<g id="edge60" class="edge"><title>17&#45;&gt;49</title>
<path fill="none" stroke="black" d="M353.042,-224.832C358.106,-222.492 363.634,-220.331 369,-218.997 703.186,-135.858 808.814,-266.135 1143,-182.997 1145.18,-182.454 1147.39,-181.776 1149.58,-181.004"/>
<polygon fill="black" stroke="black" points="1151.03,-184.191 1158.96,-177.161 1148.38,-177.713 1151.03,-184.191"/>
</g>
<!-- 21 -->
<g id="node43" class="node"><title>21</title>
<ellipse fill="none" stroke="black" cx="459" cy="-164.997" rx="27" ry="18"/>
<text text-anchor="middle" x="459" y="-161.297" font-family="Times,serif" font-size="14.00">21</text>
</g>
<!-- 17&#45;&gt;21 -->
<g id="edge63" class="edge"><title>17&#45;&gt;21</title>
<path fill="none" stroke="black" d="M353.244,-224.75C374.002,-213.218 406.484,-195.172 429.975,-182.121"/>
<polygon fill="black" stroke="black" points="431.764,-185.131 438.806,-177.215 428.365,-179.012 431.764,-185.131"/>
</g>
<!-- 19 -->
<g id="node44" class="node"><title>19</title>
<ellipse fill="none" stroke="black" cx="171" cy="-164.997" rx="27" ry="18"/>
<text text-anchor="middle" x="171" y="-161.297" font-family="Times,serif" font-size="14.00">19</text>
</g>
<!-- 17&#45;&gt;19 -->
<g id="edge64" class="edge"><title>17&#45;&gt;19</title>
<path fill="none" stroke="black" d="M310.57,-226.902C285.275,-216.568 242.976,-199.048 207,-182.997 205.201,-182.194 203.357,-181.359 201.499,-180.51"/>
<polygon fill="black" stroke="black" points="202.795,-177.253 192.25,-176.217 199.847,-183.602 202.795,-177.253"/>
</g>
<!-- 49&#45;&gt;33 -->
<g id="edge143" class="edge"><title>49&#45;&gt;33</title>
<path fill="none" stroke="black" d="M1179,-146.693C1179,-138.979 1179,-129.709 1179,-121.109"/>
<polygon fill="black" stroke="black" points="1182.5,-121.101 1179,-111.101 1175.5,-121.101 1182.5,-121.101"/>
</g>
<!-- 51 -->
<g id="node45" class="node"><title>51</title>
<ellipse fill="none" stroke="black" cx="1107" cy="-92.9965" rx="27" ry="18"/>
<text text-anchor="middle" x="1107" y="-89.2965" font-family="Times,serif" font-size="14.00">51</text>
</g>
<!-- 49&#45;&gt;51 -->
<g id="edge145" class="edge"><title>49&#45;&gt;51</title>
<path fill="none" stroke="black" d="M1164.43,-149.831C1154.25,-139.934 1140.48,-126.543 1128.97,-115.356"/>
<polygon fill="black" stroke="black" points="1131.41,-112.843 1121.8,-108.381 1126.53,-117.862 1131.41,-112.843"/>
</g>
<!-- 53 -->
<g id="node46" class="node"><title>53</title>
<ellipse fill="none" stroke="black" cx="1323" cy="-92.9965" rx="27" ry="18"/>
<text text-anchor="middle" x="1323" y="-89.2965" font-family="Times,serif" font-size="14.00">53</text>
</g>
<!-- 49&#45;&gt;53 -->
<g id="edge144" class="edge"><title>49&#45;&gt;53</title>
<path fill="none" stroke="black" d="M1200.25,-153.668C1224.6,-141.829 1264.72,-122.328 1292.43,-108.858"/>
<polygon fill="black" stroke="black" points="1294.2,-111.887 1301.67,-104.368 1291.14,-105.592 1294.2,-111.887"/>
</g>
<!-- 21&#45;&gt;5 -->
<g id="edge73" class="edge"><title>21&#45;&gt;5</title>
<path fill="none" stroke="black" d="M472.882,-149.492C482.135,-139.825 494.471,-126.937 504.926,-116.014"/>
<polygon fill="black" stroke="black" points="507.749,-118.126 512.135,-108.482 502.692,-113.286 507.749,-118.126"/>
</g>
<!-- 21&#45;&gt;20 -->
<g id="edge75" class="edge"><title>21&#45;&gt;20</title>
<path fill="none" stroke="black" d="M453.432,-147.051C450.805,-139.055 447.609,-129.327 444.674,-120.396"/>
<polygon fill="black" stroke="black" points="447.963,-119.193 441.516,-110.786 441.313,-121.378 447.963,-119.193"/>
</g>
<!-- 21&#45;&gt;29 -->
<g id="edge74" class="edge"><title>21&#45;&gt;29</title>
<path fill="none" stroke="black" d="M479.458,-152.796C484.417,-150.518 489.793,-148.394 495,-146.997 681.083,-97.0639 740.917,-160.929 927,-110.997 928.953,-110.473 930.929,-109.846 932.898,-109.148"/>
<polygon fill="black" stroke="black" points="934.615,-112.227 942.542,-105.197 931.961,-105.75 934.615,-112.227"/>
</g>
<!-- 21&#45;&gt;53 -->
<g id="edge72" class="edge"><title>21&#45;&gt;53</title>
<path fill="none" stroke="black" d="M479.041,-152.828C484.105,-150.488 489.633,-148.329 495,-146.997 836.986,-62.1093 945.014,-195.884 1287,-110.997 1289.18,-110.455 1291.39,-109.778 1293.58,-109.007"/>
<polygon fill="black" stroke="black" points="1295.03,-112.194 1302.96,-105.165 1292.38,-105.716 1295.03,-112.194"/>
</g>
<!-- 19&#45;&gt;3 -->
<g id="edge68" class="edge"><title>19&#45;&gt;3</title>
<path fill="none" stroke="black" d="M192.134,-153.502C196.971,-151.245 202.125,-148.952 207,-146.997 253.96,-128.16 267.679,-128.906 315,-110.997 317.871,-109.91 320.84,-108.739 323.804,-107.539"/>
<polygon fill="black" stroke="black" points="325.229,-110.736 333.122,-103.668 322.544,-104.272 325.229,-110.736"/>
</g>
<!-- 19&#45;&gt;18 -->
<g id="edge70" class="edge"><title>19&#45;&gt;18</title>
<path fill="none" stroke="black" d="M189.812,-151.803C207.002,-140.662 232.618,-124.059 251.993,-111.501"/>
<polygon fill="black" stroke="black" points="253.916,-114.426 260.403,-106.05 250.108,-108.552 253.916,-114.426"/>
</g>
<!-- 19&#45;&gt;27 -->
<g id="edge69" class="edge"><title>19&#45;&gt;27</title>
<path fill="none" stroke="black" d="M191.066,-152.927C196.13,-150.584 201.651,-148.398 207,-146.997 424.238,-90.0794 493.762,-167.914 711,-110.997 713.173,-110.427 715.374,-109.728 717.562,-108.942"/>
<polygon fill="black" stroke="black" points="719.031,-112.122 726.934,-105.066 716.356,-105.654 719.031,-112.122"/>
</g>
<!-- 19&#45;&gt;51 -->
<g id="edge67" class="edge"><title>19&#45;&gt;51</title>
<path fill="none" stroke="black" d="M191.037,-152.814C196.102,-150.474 201.631,-148.318 207,-146.997 580.188,-55.1129 697.812,-202.88 1071,-110.997 1073.18,-110.46 1075.39,-109.785 1077.58,-109.016"/>
<polygon fill="black" stroke="black" points="1079.03,-112.204 1086.96,-105.179 1076.38,-105.725 1079.03,-112.204"/>
</g>
<!-- 51&#45;&gt;35 -->
<g id="edge150" class="edge"><title>51&#45;&gt;35</title>
<path fill="none" stroke="black" d="M1115.17,-75.7725C1119.57,-67.0301 1125.1,-56.0405 1130.08,-46.1678"/>
<polygon fill="black" stroke="black" points="1133.24,-47.66 1134.61,-37.1543 1126.99,-44.512 1133.24,-47.66"/>
</g>
<!-- 53&#45;&gt;37 -->
<g id="edge155" class="edge"><title>53&#45;&gt;37</title>
<path fill="none" stroke="black" d="M1314.83,-75.7725C1310.43,-67.0301 1304.9,-56.0405 1299.92,-46.1678"/>
<polygon fill="black" stroke="black" points="1303.01,-44.512 1295.39,-37.1543 1296.76,-47.66 1303.01,-44.512"/>
</g>
<!-- 23 -->
<g id="node47" class="node"><title>23</title>
<ellipse fill="none" stroke="black" cx="513" cy="-236.997" rx="27" ry="18"/>
<text text-anchor="middle" x="513" y="-233.297" font-family="Times,serif" font-size="14.00">23</text>
</g>
<!-- 23&#45;&gt;22 -->
<g id="edge84" class="edge"><title>23&#45;&gt;22</title>
<path fill="none" stroke="black" d="M488.51,-229.026C456.489,-219.676 398.842,-202.032 351,-182.997 349.17,-182.268 347.301,-181.491 345.424,-180.686"/>
<polygon fill="black" stroke="black" points="346.683,-177.414 336.126,-176.511 343.815,-183.8 346.683,-177.414"/>
</g>
<!-- 23&#45;&gt;7 -->
<g id="edge80" class="edge"><title>23&#45;&gt;7</title>
<path fill="none" stroke="black" d="M517.357,-219.051C519.391,-211.141 521.861,-201.536 524.137,-192.684"/>
<polygon fill="black" stroke="black" points="527.582,-193.342 526.683,-182.786 520.803,-191.599 527.582,-193.342"/>
</g>
<!-- 23&#45;&gt;31 -->
<g id="edge81" class="edge"><title>23&#45;&gt;31</title>
<path fill="none" stroke="black" d="M539.51,-232.888C609.083,-224.57 795.616,-201.201 855,-182.997 856.933,-182.404 858.894,-181.725 860.852,-180.987"/>
<polygon fill="black" stroke="black" points="862.612,-184.043 870.465,-176.932 859.891,-177.593 862.612,-184.043"/>
</g>
<!-- 23&#45;&gt;21 -->
<g id="edge83" class="edge"><title>23&#45;&gt;21</title>
<path fill="none" stroke="black" d="M501.016,-220.461C494.024,-211.399 485.064,-199.783 477.215,-189.608"/>
<polygon fill="black" stroke="black" points="479.83,-187.268 470.951,-181.488 474.288,-191.544 479.83,-187.268"/>
</g>
<!-- 23&#45;&gt;19 -->
<g id="edge82" class="edge"><title>23&#45;&gt;19</title>
<path fill="none" stroke="black" d="M488.114,-229.608C474.294,-226.189 456.759,-222.064 441,-218.997 337.715,-198.891 307.619,-213.782 207,-182.997 205.067,-182.405 203.105,-181.727 201.147,-180.989"/>
<polygon fill="black" stroke="black" points="202.108,-177.596 191.533,-176.936 199.388,-184.046 202.108,-177.596"/>
</g>
<!-- 55 -->
<g id="node48" class="node"><title>55</title>
<ellipse fill="none" stroke="black" cx="1395" cy="-164.997" rx="27" ry="18"/>
<text text-anchor="middle" x="1395" y="-161.297" font-family="Times,serif" font-size="14.00">55</text>
</g>
<!-- 23&#45;&gt;55 -->
<g id="edge79" class="edge"><title>23&#45;&gt;55</title>
<path fill="none" stroke="black" d="M539.337,-232.807C571.361,-229.028 627.073,-222.77 675,-218.997 826.741,-207.05 1211.4,-220.194 1359,-182.997 1361.18,-182.448 1363.38,-181.764 1365.57,-180.989"/>
<polygon fill="black" stroke="black" points="1367.03,-184.174 1374.95,-177.138 1364.37,-177.699 1367.03,-184.174"/>
</g>
<!-- 55&#45;&gt;39 -->
<g id="edge162" class="edge"><title>55&#45;&gt;39</title>
<path fill="none" stroke="black" d="M1395,-146.693C1395,-138.979 1395,-129.709 1395,-121.109"/>
<polygon fill="black" stroke="black" points="1398.5,-121.101 1395,-111.101 1391.5,-121.101 1398.5,-121.101"/>
</g>
<!-- 55&#45;&gt;51 -->
<g id="edge163" class="edge"><title>55&#45;&gt;51</title>
<path fill="none" stroke="black" d="M1374.45,-153.104C1369.5,-150.813 1364.15,-148.606 1359,-146.997 1266.11,-117.941 1235.89,-140.052 1143,-110.997 1141.07,-110.393 1139.11,-109.705 1137.16,-108.961"/>
<polygon fill="black" stroke="black" points="1138.12,-105.568 1127.55,-104.889 1135.39,-112.014 1138.12,-105.568"/>
</g>
<!-- 55&#45;&gt;53 -->
<g id="edge164" class="edge"><title>55&#45;&gt;53</title>
<path fill="none" stroke="black" d="M1380.43,-149.831C1370.25,-139.934 1356.48,-126.543 1344.97,-115.356"/>
<polygon fill="black" stroke="black" points="1347.41,-112.843 1337.8,-108.381 1342.53,-117.862 1347.41,-112.843"/>
</g>
<!-- 40 -->
<g id="node49" class="node"><title>40</title>
<ellipse fill="none" stroke="black" cx="1471" cy="-236.997" rx="27" ry="18"/>
<text text-anchor="middle" x="1471" y="-233.297" font-family="Times,serif" font-size="14.00">40</text>
</g>
<!-- 40&#45;&gt;32 -->
<g id="edge111" class="edge"><title>40&#45;&gt;32</title>
<path fill="none" stroke="black" d="M1444.35,-232.672C1376.69,-224.075 1199.61,-200.551 1143,-182.997 1141.07,-182.398 1139.11,-181.714 1137.15,-180.972"/>
<polygon fill="black" stroke="black" points="1138.12,-177.579 1127.54,-176.908 1135.39,-184.026 1138.12,-177.579"/>
</g>
<!-- 40&#45;&gt;8 -->
<g id="edge109" class="edge"><title>40&#45;&gt;8</title>
<path fill="none" stroke="black" d="M1444.85,-232.498C1415.31,-228.661 1365.78,-222.576 1323,-218.997 1171.32,-206.306 786.595,-220.194 639,-182.997 636.822,-182.448 634.616,-181.764 632.426,-180.989"/>
<polygon fill="black" stroke="black" points="633.628,-177.699 623.048,-177.138 630.968,-184.174 633.628,-177.699"/>
</g>
<!-- 40&#45;&gt;41 -->
<g id="edge114" class="edge"><title>40&#45;&gt;41</title>
<path fill="none" stroke="black" d="M1495.87,-229.758C1530.32,-220.836 1594.28,-203.255 1647,-182.997 1648.84,-182.29 1650.71,-181.53 1652.6,-180.737"/>
<polygon fill="black" stroke="black" points="1654.19,-183.858 1661.91,-176.597 1651.35,-177.462 1654.19,-183.858"/>
</g>
<!-- 56 -->
<g id="node50" class="node"><title>56</title>
<ellipse fill="none" stroke="black" cx="1467" cy="-164.997" rx="27" ry="18"/>
<text text-anchor="middle" x="1467" y="-161.297" font-family="Times,serif" font-size="14.00">56</text>
</g>
<!-- 40&#45;&gt;56 -->
<g id="edge110" class="edge"><title>40&#45;&gt;56</title>
<path fill="none" stroke="black" d="M1470.01,-218.693C1469.57,-210.979 1469.04,-201.709 1468.55,-193.109"/>
<polygon fill="black" stroke="black" points="1472.04,-192.885 1467.98,-183.101 1465.05,-193.284 1472.04,-192.885"/>
</g>
<!-- 44 -->
<g id="node51" class="node"><title>44</title>
<ellipse fill="none" stroke="black" cx="1827" cy="-164.997" rx="27" ry="18"/>
<text text-anchor="middle" x="1827" y="-161.297" font-family="Times,serif" font-size="14.00">44</text>
</g>
<!-- 40&#45;&gt;44 -->
<g id="edge112" class="edge"><title>40&#45;&gt;44</title>
<path fill="none" stroke="black" d="M1495.88,-229.555C1509.69,-226.121 1527.23,-221.997 1543,-218.997 1652.41,-198.18 1684.36,-215.13 1791,-182.997 1792.94,-182.413 1794.9,-181.741 1796.86,-181.009"/>
<polygon fill="black" stroke="black" points="1798.61,-184.068 1806.48,-176.968 1795.9,-177.615 1798.61,-184.068"/>
</g>
<!-- 42 -->
<g id="node52" class="node"><title>42</title>
<ellipse fill="none" stroke="black" cx="1539" cy="-164.997" rx="27" ry="18"/>
<text text-anchor="middle" x="1539" y="-161.297" font-family="Times,serif" font-size="14.00">42</text>
</g>
<!-- 40&#45;&gt;42 -->
<g id="edge113" class="edge"><title>40&#45;&gt;42</title>
<path fill="none" stroke="black" d="M1485.09,-221.492C1494.57,-211.731 1507.24,-198.686 1517.92,-187.696"/>
<polygon fill="black" stroke="black" points="1520.47,-190.094 1524.93,-180.482 1515.45,-185.216 1520.47,-190.094"/>
</g>
<!-- 56&#45;&gt;24 -->
<g id="edge165" class="edge"><title>56&#45;&gt;24</title>
<path fill="none" stroke="black" d="M1446.96,-152.828C1441.89,-150.488 1436.37,-148.329 1431,-146.997 1089.01,-62.1093 980.986,-195.884 639,-110.997 636.82,-110.455 634.613,-109.778 632.421,-109.007"/>
<polygon fill="black" stroke="black" points="633.621,-105.716 623.041,-105.165 630.968,-112.194 633.621,-105.716"/>
</g>
<!-- 58 -->
<g id="node53" class="node"><title>58</title>
<ellipse fill="none" stroke="black" cx="1476" cy="-92.9965" rx="27" ry="18"/>
<text text-anchor="middle" x="1476" y="-89.2965" font-family="Times,serif" font-size="14.00">58</text>
</g>
<!-- 56&#45;&gt;58 -->
<g id="edge167" class="edge"><title>56&#45;&gt;58</title>
<path fill="none" stroke="black" d="M1469.18,-147.051C1470.17,-139.342 1471.37,-130.023 1472.48,-121.361"/>
<polygon fill="black" stroke="black" points="1475.98,-121.637 1473.78,-111.272 1469.03,-120.744 1475.98,-121.637"/>
</g>
<!-- 60 -->
<g id="node54" class="node"><title>60</title>
<ellipse fill="none" stroke="black" cx="1674" cy="-92.9965" rx="27" ry="18"/>
<text text-anchor="middle" x="1674" y="-89.2965" font-family="Times,serif" font-size="14.00">60</text>
</g>
<!-- 56&#45;&gt;60 -->
<g id="edge166" class="edge"><title>56&#45;&gt;60</title>
<path fill="none" stroke="black" d="M1488.1,-153.425C1492.94,-151.172 1498.1,-148.9 1503,-146.997 1549.4,-128.952 1604.69,-112.738 1639.57,-103.129"/>
<polygon fill="black" stroke="black" points="1640.55,-106.49 1649.28,-100.481 1638.71,-99.7365 1640.55,-106.49"/>
</g>
<!-- 44&#45;&gt;36 -->
<g id="edge125" class="edge"><title>44&#45;&gt;36</title>
<path fill="none" stroke="black" d="M1806.93,-152.927C1801.87,-150.584 1796.35,-148.398 1791,-146.997 1573.76,-90.0794 1504.24,-167.914 1287,-110.997 1284.83,-110.427 1282.63,-109.728 1280.44,-108.942"/>
<polygon fill="black" stroke="black" points="1281.64,-105.654 1271.07,-105.066 1278.97,-112.122 1281.64,-105.654"/>
</g>
<!-- 44&#45;&gt;12 -->
<g id="edge123" class="edge"><title>44&#45;&gt;12</title>
<path fill="none" stroke="black" d="M1806.96,-152.814C1801.9,-150.474 1796.37,-148.318 1791,-146.997 1417.81,-55.1129 1300.19,-202.88 927,-110.997 924.819,-110.46 922.611,-109.785 920.419,-109.016"/>
<polygon fill="black" stroke="black" points="921.618,-105.725 911.037,-105.179 918.968,-112.204 921.618,-105.725"/>
</g>
<!-- 44&#45;&gt;45 -->
<g id="edge126" class="edge"><title>44&#45;&gt;45</title>
<path fill="none" stroke="black" d="M1824.82,-147.051C1823.83,-139.342 1822.63,-130.023 1821.52,-121.361"/>
<polygon fill="black" stroke="black" points="1824.97,-120.744 1820.22,-111.272 1818.02,-121.637 1824.97,-120.744"/>
</g>
<!-- 44&#45;&gt;60 -->
<g id="edge124" class="edge"><title>44&#45;&gt;60</title>
<path fill="none" stroke="black" d="M1805.71,-153.873C1800.88,-151.596 1795.77,-149.202 1791,-146.997 1762.01,-133.584 1728.82,-118.586 1705.22,-107.976"/>
<polygon fill="black" stroke="black" points="1706.6,-104.76 1696.04,-103.857 1703.73,-111.146 1706.6,-104.76"/>
</g>
<!-- 42&#45;&gt;34 -->
<g id="edge120" class="edge"><title>42&#45;&gt;34</title>
<path fill="none" stroke="black" d="M1518.54,-152.796C1513.58,-150.518 1508.21,-148.394 1503,-146.997 1316.92,-97.0639 1257.08,-160.929 1071,-110.997 1069.05,-110.473 1067.07,-109.846 1065.1,-109.148"/>
<polygon fill="black" stroke="black" points="1066.04,-105.75 1055.46,-105.197 1063.38,-112.227 1066.04,-105.75"/>
</g>
<!-- 42&#45;&gt;10 -->
<g id="edge118" class="edge"><title>42&#45;&gt;10</title>
<path fill="none" stroke="black" d="M1518.96,-152.828C1513.89,-150.488 1508.37,-148.329 1503,-146.997 1161.01,-62.1093 1052.99,-195.884 711,-110.997 708.82,-110.455 706.613,-109.778 704.421,-109.007"/>
<polygon fill="black" stroke="black" points="705.621,-105.716 695.041,-105.165 702.968,-112.194 705.621,-105.716"/>
</g>
<!-- 42&#45;&gt;43 -->
<g id="edge121" class="edge"><title>42&#45;&gt;43</title>
<path fill="none" stroke="black" d="M1545.4,-147.408C1548.51,-139.332 1552.33,-129.428 1555.83,-120.351"/>
<polygon fill="black" stroke="black" points="1559.13,-121.542 1559.46,-110.953 1552.6,-119.023 1559.13,-121.542"/>
</g>
<!-- 42&#45;&gt;58 -->
<g id="edge119" class="edge"><title>42&#45;&gt;58</title>
<path fill="none" stroke="black" d="M1525.64,-149.151C1517.12,-139.685 1505.91,-127.235 1496.31,-116.559"/>
<polygon fill="black" stroke="black" points="1498.63,-113.912 1489.34,-108.82 1493.43,-118.595 1498.63,-113.912"/>
</g>
<!-- 58&#45;&gt;26 -->
<g id="edge174" class="edge"><title>58&#45;&gt;26</title>
<path fill="none" stroke="black" d="M1453.97,-82.1589C1446.78,-79.3633 1438.68,-76.6358 1431,-74.9965 1168.01,-18.8405 1094.33,-68.2066 827,-38.9965 799.926,-36.0383 769.532,-31.1325 746.649,-27.116"/>
<polygon fill="black" stroke="black" points="747.161,-23.6523 736.702,-25.3434 745.933,-30.5437 747.161,-23.6523"/>
</g>
<!-- 60&#45;&gt;28 -->
<g id="edge179" class="edge"><title>60&#45;&gt;28</title>
<path fill="none" stroke="black" d="M1649.53,-85.1959C1635.69,-81.6072 1618,-77.4506 1602,-74.9965 1383.97,-41.5466 1326.99,-55.0708 1107,-38.9965 1026.63,-33.1244 931.853,-26.1551 884.722,-22.6865"/>
<polygon fill="black" stroke="black" points="884.835,-19.1855 874.605,-21.9419 884.321,-26.1666 884.835,-19.1855"/>
</g>
<!-- 46 -->
<g id="node55" class="node"><title>46</title>
<ellipse fill="none" stroke="black" cx="1669" cy="-236.997" rx="27" ry="18"/>
<text text-anchor="middle" x="1669" y="-233.297" font-family="Times,serif" font-size="14.00">46</text>
</g>
<!-- 46&#45;&gt;38 -->
<g id="edge130" class="edge"><title>46&#45;&gt;38</title>
<path fill="none" stroke="black" d="M1645.87,-227.622C1636.41,-224.484 1625.29,-221.16 1615,-218.997 1471.48,-188.833 1428.13,-222.855 1287,-182.997 1285.05,-182.447 1283.08,-181.801 1281.12,-181.088"/>
<polygon fill="black" stroke="black" points="1282.06,-177.692 1271.49,-177.099 1279.39,-184.159 1282.06,-177.692"/>
</g>
<!-- 46&#45;&gt;14 -->
<g id="edge128" class="edge"><title>46&#45;&gt;14</title>
<path fill="none" stroke="black" d="M1645.94,-227.297C1636.49,-224.112 1625.35,-220.84 1615,-218.997 1282.08,-159.734 1183.12,-264.775 855,-182.997 852.82,-182.453 850.614,-181.774 848.423,-181.002"/>
<polygon fill="black" stroke="black" points="849.623,-177.711 839.043,-177.158 846.968,-184.188 849.623,-177.711"/>
</g>
<!-- 46&#45;&gt;47 -->
<g id="edge133" class="edge"><title>46&#45;&gt;47</title>
<path fill="none" stroke="black" d="M1691.14,-226.626C1698.33,-223.856 1706.42,-221.025 1714,-218.997 1810.14,-193.284 1839.97,-212.532 1935,-182.997 1936.93,-182.397 1938.89,-181.712 1940.85,-180.969"/>
<polygon fill="black" stroke="black" points="1942.61,-184.023 1950.46,-176.903 1939.88,-177.576 1942.61,-184.023"/>
</g>
<!-- 46&#45;&gt;44 -->
<g id="edge132" class="edge"><title>46&#45;&gt;44</title>
<path fill="none" stroke="black" d="M1691.13,-226.629C1715.65,-216.196 1756.29,-198.725 1791,-182.997 1792.79,-182.183 1794.64,-181.341 1796.49,-180.485"/>
<polygon fill="black" stroke="black" points="1798.15,-183.574 1805.73,-176.175 1795.19,-177.23 1798.15,-183.574"/>
</g>
<!-- 46&#45;&gt;42 -->
<g id="edge131" class="edge"><title>46&#45;&gt;42</title>
<path fill="none" stroke="black" d="M1648.69,-225.059C1627.16,-213.466 1592.95,-195.047 1568.46,-181.861"/>
<polygon fill="black" stroke="black" points="1570.06,-178.748 1559.6,-177.088 1566.74,-184.911 1570.06,-178.748"/>
</g>
<!-- 62 -->
<g id="node56" class="node"><title>62</title>
<ellipse fill="none" stroke="black" cx="1755" cy="-164.997" rx="27" ry="18"/>
<text text-anchor="middle" x="1755" y="-161.297" font-family="Times,serif" font-size="14.00">62</text>
</g>
<!-- 46&#45;&gt;62 -->
<g id="edge129" class="edge"><title>46&#45;&gt;62</title>
<path fill="none" stroke="black" d="M1685.58,-222.5C1698.31,-212.138 1716.09,-197.671 1730.46,-185.97"/>
<polygon fill="black" stroke="black" points="1732.92,-188.479 1738.47,-179.452 1728.5,-183.05 1732.92,-188.479"/>
</g>
<!-- 62&#45;&gt;30 -->
<g id="edge184" class="edge"><title>62&#45;&gt;30</title>
<path fill="none" stroke="black" d="M1734.96,-152.814C1729.9,-150.474 1724.37,-148.318 1719,-146.997 1345.81,-55.1129 1228.19,-202.88 855,-110.997 852.819,-110.46 850.611,-109.785 848.419,-109.016"/>
<polygon fill="black" stroke="black" points="849.618,-105.725 839.037,-105.179 846.968,-112.204 849.618,-105.725"/>
</g>
<!-- 62&#45;&gt;58 -->
<g id="edge185" class="edge"><title>62&#45;&gt;58</title>
<path fill="none" stroke="black" d="M1734.42,-153.19C1729.47,-150.895 1724.13,-148.665 1719,-146.997 1637.69,-120.528 1612.92,-131.871 1530,-110.997 1523.21,-109.288 1516.02,-107.214 1509.18,-105.111"/>
<polygon fill="black" stroke="black" points="1510.08,-101.724 1499.49,-102.047 1507.97,-108.399 1510.08,-101.724"/>
</g>
<!-- 62&#45;&gt;60 -->
<g id="edge186" class="edge"><title>62&#45;&gt;60</title>
<path fill="none" stroke="black" d="M1739,-150.167C1727.24,-140.004 1711.06,-126.027 1697.79,-114.558"/>
<polygon fill="black" stroke="black" points="1699.82,-111.688 1689.97,-107.798 1695.25,-116.984 1699.82,-111.688"/>
</g>
<!-- 48 -->
<g id="node57" class="node"><title>48</title>
<ellipse fill="none" stroke="black" cx="1143" cy="-236.997" rx="27" ry="18"/>
<text text-anchor="middle" x="1143" y="-233.297" font-family="Times,serif" font-size="14.00">48</text>
</g>
<!-- 48&#45;&gt;32 -->
<g id="edge138" class="edge"><title>48&#45;&gt;32</title>
<path fill="none" stroke="black" d="M1134.65,-219.761C1130.29,-211.28 1124.85,-200.711 1119.96,-191.194"/>
<polygon fill="black" stroke="black" points="1122.99,-189.436 1115.3,-182.144 1116.77,-192.637 1122.99,-189.436"/>
</g>
<!-- 48&#45;&gt;16 -->
<g id="edge137" class="edge"><title>48&#45;&gt;16</title>
<path fill="none" stroke="black" d="M1116.16,-233.974C1070.12,-230.553 973.092,-223.549 891,-218.997 707.109,-208.798 241.793,-227.189 63,-182.997 60.8193,-182.458 58.6121,-181.781 56.4202,-181.012"/>
<polygon fill="black" stroke="black" points="57.6195,-177.721 47.0389,-177.172 54.9681,-184.199 57.6195,-177.721"/>
</g>
<!-- 48&#45;&gt;49 -->
<g id="edge142" class="edge"><title>48&#45;&gt;49</title>
<path fill="none" stroke="black" d="M1151.35,-219.761C1155.71,-211.28 1161.15,-200.711 1166.04,-191.194"/>
<polygon fill="black" stroke="black" points="1169.23,-192.637 1170.7,-182.144 1163.01,-189.436 1169.23,-192.637"/>
</g>
<!-- 48&#45;&gt;56 -->
<g id="edge139" class="edge"><title>48&#45;&gt;56</title>
<path fill="none" stroke="black" d="M1168.82,-231.64C1234.78,-220.451 1406.08,-191.023 1431,-182.997 1432.92,-182.377 1434.88,-181.677 1436.83,-180.923"/>
<polygon fill="black" stroke="black" points="1438.61,-183.97 1446.43,-176.827 1435.86,-177.532 1438.61,-183.97"/>
</g>
<!-- 52 -->
<g id="node58" class="node"><title>52</title>
<ellipse fill="none" stroke="black" cx="1323" cy="-164.997" rx="27" ry="18"/>
<text text-anchor="middle" x="1323" y="-161.297" font-family="Times,serif" font-size="14.00">52</text>
</g>
<!-- 48&#45;&gt;52 -->
<g id="edge140" class="edge"><title>48&#45;&gt;52</title>
<path fill="none" stroke="black" d="M1166.69,-227.999C1195.44,-218.131 1245.23,-200.504 1287,-182.997 1288.82,-182.235 1290.68,-181.432 1292.54,-180.607"/>
<polygon fill="black" stroke="black" points="1294.17,-183.711 1301.82,-176.379 1291.27,-177.342 1294.17,-183.711"/>
</g>
<!-- 50 -->
<g id="node59" class="node"><title>50</title>
<ellipse fill="none" stroke="black" cx="1035" cy="-164.997" rx="27" ry="18"/>
<text text-anchor="middle" x="1035" y="-161.297" font-family="Times,serif" font-size="14.00">50</text>
</g>
<!-- 48&#45;&gt;50 -->
<g id="edge141" class="edge"><title>48&#45;&gt;50</title>
<path fill="none" stroke="black" d="M1124.19,-223.803C1107,-212.662 1081.38,-196.059 1062.01,-183.501"/>
<polygon fill="black" stroke="black" points="1063.89,-180.552 1053.6,-178.05 1060.08,-186.426 1063.89,-180.552"/>
</g>
<!-- 52&#45;&gt;36 -->
<g id="edge152" class="edge"><title>52&#45;&gt;36</title>
<path fill="none" stroke="black" d="M1308.43,-149.831C1298.25,-139.934 1284.48,-126.543 1272.97,-115.356"/>
<polygon fill="black" stroke="black" points="1275.41,-112.843 1265.8,-108.381 1270.53,-117.862 1275.41,-112.843"/>
</g>
<!-- 52&#45;&gt;20 -->
<g id="edge151" class="edge"><title>52&#45;&gt;20</title>
<path fill="none" stroke="black" d="M1302.96,-152.827C1297.89,-150.487 1292.37,-148.328 1287,-146.997 942.848,-61.6235 839.164,-172.755 490,-110.997 483.042,-109.766 475.734,-107.886 468.82,-105.818"/>
<polygon fill="black" stroke="black" points="469.651,-102.409 459.06,-102.708 467.526,-109.079 469.651,-102.409"/>
</g>
<!-- 52&#45;&gt;53 -->
<g id="edge154" class="edge"><title>52&#45;&gt;53</title>
<path fill="none" stroke="black" d="M1323,-146.693C1323,-138.979 1323,-129.709 1323,-121.109"/>
<polygon fill="black" stroke="black" points="1326.5,-121.101 1323,-111.101 1319.5,-121.101 1326.5,-121.101"/>
</g>
<!-- 52&#45;&gt;60 -->
<g id="edge153" class="edge"><title>52&#45;&gt;60</title>
<path fill="none" stroke="black" d="M1343.53,-153.036C1348.48,-150.748 1353.84,-148.559 1359,-146.997 1463.49,-115.345 1494.78,-131.559 1602,-110.997 1614.2,-108.658 1627.45,-105.661 1639.22,-102.837"/>
<polygon fill="black" stroke="black" points="1640.24,-106.192 1649.12,-100.42 1638.58,-99.3912 1640.24,-106.192"/>
</g>
<!-- 50&#45;&gt;34 -->
<g id="edge147" class="edge"><title>50&#45;&gt;34</title>
<path fill="none" stroke="black" d="M1035,-146.693C1035,-138.979 1035,-129.709 1035,-121.109"/>
<polygon fill="black" stroke="black" points="1038.5,-121.101 1035,-111.101 1031.5,-121.101 1038.5,-121.101"/>
</g>
<!-- 50&#45;&gt;18 -->
<g id="edge146" class="edge"><title>50&#45;&gt;18</title>
<path fill="none" stroke="black" d="M1014.95,-152.857C1009.89,-150.516 1004.36,-148.349 999,-146.997 705.542,-72.9904 613.855,-179.221 319,-110.997 315.938,-110.288 312.813,-109.36 309.727,-108.302"/>
<polygon fill="black" stroke="black" points="310.716,-104.933 300.127,-104.595 308.194,-111.462 310.716,-104.933"/>
</g>
<!-- 50&#45;&gt;51 -->
<g id="edge149" class="edge"><title>50&#45;&gt;51</title>
<path fill="none" stroke="black" d="M1049.57,-149.831C1059.75,-139.934 1073.52,-126.543 1085.03,-115.356"/>
<polygon fill="black" stroke="black" points="1087.47,-117.862 1092.2,-108.381 1082.59,-112.843 1087.47,-117.862"/>
</g>
<!-- 50&#45;&gt;58 -->
<g id="edge148" class="edge"><title>50&#45;&gt;58</title>
<path fill="none" stroke="black" d="M1055.48,-152.858C1060.43,-150.578 1065.8,-148.437 1071,-146.997 1225.95,-104.041 1274.45,-147.723 1431,-110.997 1435.42,-109.96 1439.99,-108.597 1444.45,-107.094"/>
<polygon fill="black" stroke="black" points="1445.72,-110.354 1453.93,-103.65 1443.33,-103.775 1445.72,-110.354"/>
</g>
<!-- 54 -->
<g id="node60" class="node"><title>54</title>
<ellipse fill="none" stroke="black" cx="1287" cy="-236.997" rx="27" ry="18"/>
<text text-anchor="middle" x="1287" y="-233.297" font-family="Times,serif" font-size="14.00">54</text>
</g>
<!-- 54&#45;&gt;38 -->
<g id="edge157" class="edge"><title>54&#45;&gt;38</title>
<path fill="none" stroke="black" d="M1278.65,-219.761C1274.29,-211.28 1268.85,-200.711 1263.96,-191.194"/>
<polygon fill="black" stroke="black" points="1266.99,-189.436 1259.3,-182.144 1260.77,-192.637 1266.99,-189.436"/>
</g>
<!-- 54&#45;&gt;22 -->
<g id="edge156" class="edge"><title>54&#45;&gt;22</title>
<path fill="none" stroke="black" d="M1261.36,-231.125C1239.54,-227.182 1207.33,-221.833 1179,-218.997 995.742,-200.649 529.793,-227.189 351,-182.997 348.819,-182.458 346.612,-181.781 344.42,-181.012"/>
<polygon fill="black" stroke="black" points="345.62,-177.721 335.039,-177.172 342.968,-184.199 345.62,-177.721"/>
</g>
<!-- 54&#45;&gt;55 -->
<g id="edge161" class="edge"><title>54&#45;&gt;55</title>
<path fill="none" stroke="black" d="M1305.81,-223.803C1323,-212.662 1348.62,-196.059 1367.99,-183.501"/>
<polygon fill="black" stroke="black" points="1369.92,-186.426 1376.4,-178.05 1366.11,-180.552 1369.92,-186.426"/>
</g>
<!-- 54&#45;&gt;62 -->
<g id="edge158" class="edge"><title>54&#45;&gt;62</title>
<path fill="none" stroke="black" d="M1313.59,-232.97C1404.65,-222.578 1699.38,-188.673 1719,-182.997 1720.94,-182.435 1722.91,-181.779 1724.87,-181.059"/>
<polygon fill="black" stroke="black" points="1726.61,-184.125 1734.5,-177.051 1723.92,-177.663 1726.61,-184.125"/>
</g>
<!-- 54&#45;&gt;52 -->
<g id="edge160" class="edge"><title>54&#45;&gt;52</title>
<path fill="none" stroke="black" d="M1295.35,-219.761C1299.71,-211.28 1305.15,-200.711 1310.04,-191.194"/>
<polygon fill="black" stroke="black" points="1313.23,-192.637 1314.7,-182.144 1307.01,-189.436 1313.23,-192.637"/>
</g>
<!-- 54&#45;&gt;50 -->
<g id="edge159" class="edge"><title>54&#45;&gt;50</title>
<path fill="none" stroke="black" d="M1261.24,-231.414C1220.25,-223.738 1137.96,-206.75 1071,-182.997 1069.09,-182.321 1067.15,-181.577 1065.21,-180.791"/>
<polygon fill="black" stroke="black" points="1066.21,-177.405 1055.64,-176.609 1063.4,-183.82 1066.21,-177.405"/>
</g>
<!-- 57 -->
<g id="node61" class="node"><title>57</title>
<ellipse fill="none" stroke="black" cx="1579" cy="-236.997" rx="27" ry="18"/>
<text text-anchor="middle" x="1579" y="-233.297" font-family="Times,serif" font-size="14.00">57</text>
</g>
<!-- 57&#45;&gt;41 -->
<g id="edge169" class="edge"><title>57&#45;&gt;41</title>
<path fill="none" stroke="black" d="M1597.59,-223.482C1613.86,-212.532 1637.69,-196.491 1656.05,-184.134"/>
<polygon fill="black" stroke="black" points="1658.23,-186.89 1664.57,-178.403 1654.32,-181.083 1658.23,-186.89"/>
</g>
<!-- 57&#45;&gt;25 -->
<g id="edge168" class="edge"><title>57&#45;&gt;25</title>
<path fill="none" stroke="black" d="M1554.55,-229.054C1540.72,-225.421 1523.02,-221.267 1507,-218.997 1188.01,-173.792 1095.52,-261.277 783,-182.997 780.821,-182.451 778.615,-181.77 776.424,-180.996"/>
<polygon fill="black" stroke="black" points="777.625,-177.706 767.045,-177.149 774.968,-184.182 777.625,-177.706"/>
</g>
<!-- 57&#45;&gt;49 -->
<g id="edge170" class="edge"><title>57&#45;&gt;49</title>
<path fill="none" stroke="black" d="M1554.15,-229.422C1540.34,-225.947 1522.8,-221.828 1507,-218.997 1378.29,-195.938 1340.6,-219.375 1215,-182.997 1213.06,-182.434 1211.09,-181.778 1209.13,-181.058"/>
<polygon fill="black" stroke="black" points="1210.08,-177.662 1199.5,-177.048 1207.39,-184.124 1210.08,-177.662"/>
</g>
<!-- 57&#45;&gt;56 -->
<g id="edge173" class="edge"><title>57&#45;&gt;56</title>
<path fill="none" stroke="black" d="M1560,-224.122C1542.06,-212.909 1514.95,-195.965 1494.62,-183.259"/>
<polygon fill="black" stroke="black" points="1496.43,-180.261 1486.09,-177.929 1492.72,-186.197 1496.43,-180.261"/>
</g>
<!-- 61 -->
<g id="node62" class="node"><title>61</title>
<ellipse fill="none" stroke="black" cx="1899" cy="-164.997" rx="27" ry="18"/>
<text text-anchor="middle" x="1899" y="-161.297" font-family="Times,serif" font-size="14.00">61</text>
</g>
<!-- 57&#45;&gt;61 -->
<g id="edge171" class="edge"><title>57&#45;&gt;61</title>
<path fill="none" stroke="black" d="M1602.44,-227.774C1611.85,-224.696 1622.86,-221.373 1633,-218.997 1733.74,-195.396 1764.1,-213.397 1863,-182.997 1864.93,-182.403 1866.89,-181.722 1868.85,-180.983"/>
<polygon fill="black" stroke="black" points="1870.61,-184.039 1878.46,-176.926 1867.89,-177.59 1870.61,-184.039"/>
</g>
<!-- 59 -->
<g id="node63" class="node"><title>59</title>
<ellipse fill="none" stroke="black" cx="1611" cy="-164.997" rx="27" ry="18"/>
<text text-anchor="middle" x="1611" y="-161.297" font-family="Times,serif" font-size="14.00">59</text>
</g>
<!-- 57&#45;&gt;59 -->
<g id="edge172" class="edge"><title>57&#45;&gt;59</title>
<path fill="none" stroke="black" d="M1586.58,-219.408C1590.37,-211.126 1595.03,-200.921 1599.27,-191.659"/>
<polygon fill="black" stroke="black" points="1602.5,-193.016 1603.47,-182.466 1596.13,-190.106 1602.5,-193.016"/>
</g>
<!-- 61&#45;&gt;45 -->
<g id="edge181" class="edge"><title>61&#45;&gt;45</title>
<path fill="none" stroke="black" d="M1883,-150.167C1871.24,-140.004 1855.06,-126.027 1841.79,-114.558"/>
<polygon fill="black" stroke="black" points="1843.82,-111.688 1833.97,-107.798 1839.25,-116.984 1843.82,-111.688"/>
</g>
<!-- 61&#45;&gt;29 -->
<g id="edge180" class="edge"><title>61&#45;&gt;29</title>
<path fill="none" stroke="black" d="M1878.96,-152.814C1873.9,-150.474 1868.37,-148.318 1863,-146.997 1489.81,-55.1129 1372.19,-202.88 999,-110.997 996.819,-110.46 994.611,-109.785 992.419,-109.016"/>
<polygon fill="black" stroke="black" points="993.618,-105.725 983.037,-105.179 990.968,-112.204 993.618,-105.725"/>
</g>
<!-- 61&#45;&gt;53 -->
<g id="edge182" class="edge"><title>61&#45;&gt;53</title>
<path fill="none" stroke="black" d="M1878.93,-152.927C1873.87,-150.584 1868.35,-148.398 1863,-146.997 1645.76,-90.0794 1576.24,-167.914 1359,-110.997 1356.83,-110.427 1354.63,-109.728 1352.44,-108.942"/>
<polygon fill="black" stroke="black" points="1353.64,-105.654 1343.07,-105.066 1350.97,-112.122 1353.64,-105.654"/>
</g>
<!-- 61&#45;&gt;60 -->
<g id="edge183" class="edge"><title>61&#45;&gt;60</title>
<path fill="none" stroke="black" d="M1877.93,-153.327C1873.09,-151.078 1867.92,-148.834 1863,-146.997 1810.62,-127.441 1747.74,-111.182 1709.35,-102.026"/>
<polygon fill="black" stroke="black" points="1709.73,-98.5207 1699.19,-99.6351 1708.12,-105.334 1709.73,-98.5207"/>
</g>
<!-- 59&#45;&gt;43 -->
<g id="edge176" class="edge"><title>59&#45;&gt;43</title>
<path fill="none" stroke="black" d="M1600.79,-148.112C1595.15,-139.342 1588.03,-128.26 1581.7,-118.413"/>
<polygon fill="black" stroke="black" points="1584.52,-116.337 1576.17,-109.818 1578.63,-120.122 1584.52,-116.337"/>
</g>
<!-- 59&#45;&gt;27 -->
<g id="edge175" class="edge"><title>59&#45;&gt;27</title>
<path fill="none" stroke="black" d="M1590.96,-152.828C1585.89,-150.488 1580.37,-148.329 1575,-146.997 1233.01,-62.1093 1124.99,-195.884 783,-110.997 780.82,-110.455 778.613,-109.778 776.421,-109.007"/>
<polygon fill="black" stroke="black" points="777.621,-105.716 767.041,-105.165 774.968,-112.194 777.621,-105.716"/>
</g>
<!-- 59&#45;&gt;51 -->
<g id="edge177" class="edge"><title>59&#45;&gt;51</title>
<path fill="none" stroke="black" d="M1590.54,-152.796C1585.58,-150.518 1580.21,-148.394 1575,-146.997 1388.92,-97.0639 1329.08,-160.929 1143,-110.997 1141.05,-110.473 1139.07,-109.846 1137.1,-109.148"/>
<polygon fill="black" stroke="black" points="1138.04,-105.75 1127.46,-105.197 1135.38,-112.227 1138.04,-105.75"/>
</g>
<!-- 59&#45;&gt;58 -->
<g id="edge178" class="edge"><title>59&#45;&gt;58</title>
<path fill="none" stroke="black" d="M1590.2,-153.212C1567.54,-141.463 1531.11,-122.571 1505.5,-109.293"/>
<polygon fill="black" stroke="black" points="1507.09,-106.174 1496.6,-104.678 1503.87,-112.388 1507.09,-106.174"/>
</g>
<!-- 63 -->
<g id="node64" class="node"><title>63</title>
<ellipse fill="none" stroke="black" cx="1750" cy="-236.997" rx="27" ry="18"/>
<text text-anchor="middle" x="1750" y="-233.297" font-family="Times,serif" font-size="14.00">63</text>
</g>
<!-- 63&#45;&gt;47 -->
<g id="edge188" class="edge"><title>63&#45;&gt;47</title>
<path fill="none" stroke="black" d="M1775.25,-230.143C1811.26,-221.487 1879.19,-204.011 1935,-182.997 1936.84,-182.302 1938.72,-181.552 1940.61,-180.767"/>
<polygon fill="black" stroke="black" points="1942.2,-183.891 1949.93,-176.646 1939.36,-177.489 1942.2,-183.891"/>
</g>
<!-- 63&#45;&gt;31 -->
<g id="edge187" class="edge"><title>63&#45;&gt;31</title>
<path fill="none" stroke="black" d="M1727.98,-226.098C1720.8,-223.299 1712.69,-220.585 1705,-218.997 1366.01,-148.966 1262.92,-266.523 927,-182.997 924.82,-182.454 922.613,-181.776 920.422,-181.005"/>
<polygon fill="black" stroke="black" points="921.622,-177.714 911.041,-177.162 918.968,-184.192 921.622,-177.714"/>
</g>
<!-- 63&#45;&gt;55 -->
<g id="edge189" class="edge"><title>63&#45;&gt;55</title>
<path fill="none" stroke="black" d="M1727.89,-226.485C1720.7,-223.707 1712.61,-220.908 1705,-218.997 1585.87,-189.095 1548.84,-217.637 1431,-182.997 1429.06,-182.426 1427.09,-181.765 1425.13,-181.039"/>
<polygon fill="black" stroke="black" points="1426.08,-177.644 1415.51,-177.018 1423.39,-184.103 1426.08,-177.644"/>
</g>
<!-- 63&#45;&gt;62 -->
<g id="edge192" class="edge"><title>63&#45;&gt;62</title>
<path fill="none" stroke="black" d="M1751.24,-218.693C1751.79,-210.979 1752.45,-201.709 1753.06,-193.109"/>
<polygon fill="black" stroke="black" points="1756.56,-193.325 1753.78,-183.101 1749.57,-192.826 1756.56,-193.325"/>
</g>
<!-- 63&#45;&gt;61 -->
<g id="edge191" class="edge"><title>63&#45;&gt;61</title>
<path fill="none" stroke="black" d="M1771.67,-225.853C1794.42,-215.198 1831.24,-197.944 1863,-182.997 1864.78,-182.158 1866.61,-181.295 1868.46,-180.424"/>
<polygon fill="black" stroke="black" points="1870.13,-183.506 1877.68,-176.074 1867.15,-177.175 1870.13,-183.506"/>
</g>
<!-- 63&#45;&gt;59 -->
<g id="edge190" class="edge"><title>63&#45;&gt;59</title>
<path fill="none" stroke="black" d="M1729.19,-225.517C1705.85,-213.764 1667.79,-194.597 1641.19,-181.199"/>
<polygon fill="black" stroke="black" points="1642.46,-177.92 1631.95,-176.548 1639.31,-184.172 1642.46,-177.92"/>
</g>
</g>
</svg>
